<svg xml:space="preserve" style="enable-background:new 0 0 2054.6 1549.6;" viewBox="0 0 2054.6 1549.6" y="0px" x="0px" xmlns:xlink="http://www.w3.org/1999/xlink" xmlns="http://www.w3.org/2000/svg" id="Layer_1" version="1.1">
<style type="text/css">
	.st0{opacity:0;fill:#FFFFFF;}
	.st1{fill:#FFFFFF;}
	.st2{fill:#479B13;}
	.st3{fill:#9DE94C;}
	.st4{fill:#02190B;}
</style>
<g>
	<rect height="1549.6" width="2054.6" class="st0"></rect>
	<g>
		<g>
			<g>
				<g>
					<path d="M645.7,698.6c16.1-1.7,235.2-13.8,232.3-4.6s-93.5,230.4-92.3,235.7s-38.6,32.2-38.6,32.2l-83-12.8
						c0,0-8.6-163.4-7.5-165.7C657.8,781,645.7,698.6,645.7,698.6z" class="st1"></path>
					<path d="M1187.4,886.4c1.8,1.8,20.3,72.5,20.3,72.5l-143.1-2.6c0,0,5.4-108.4,4.2-144.7s6-129.8,15.7-130.7
						c9.7-0.9,67.9-5.1,68.8,0c0.9,5.1,49.9,211,51.7,212C1206.8,893.8,1187.4,886.4,1187.4,886.4z" class="st1"></path>
					<path d="M647.2,473.8c-14.6,7.9-9.4,49.7,24,56.2c33.4,6.5,112,5.2,136.6-14.8c24.6-20,138-78.7,228.4-48.2
						s204,108.6,269.3,152.4c65.4,43.7,233.5,61.9,302.8,15.2c69.3-46.7,122.4-152.9,130.7-177.9c8.4-25.1,63.9-91.3,89-118.1
						s-17.9-59-50.4-22s-91.5,126.4-113.9,160.9c-22.5,34.4-94.3,114.3-174.1,114.3c-79.8,0-151.5-42-201.1-105.3
						S1146.9,367,1085.8,345.3c-61.1-21.8-199.5-4-257.2,28C771,405.2,678.6,473.6,666.8,476.4C655.1,479.3,647.2,473.8,647.2,473.8
						z" class="st1"></path>
					<path d="M136.8,337.2c28.6,4.3,226-111.8,295.4-104.8s189.1-87.5,151.8-120.5S425.6,44.5,355,63.3
						s-144.4,44.3-191.5,68.6s-74.2,65.8-77.7,104.1c-3.5,38.3-12.2,39.5,0,61.9S136.8,337.2,136.8,337.2z" class="st1"></path>
					<path d="M1257.6,965c-2.4,0-72.6-12.7-72.6-12.7l-21.6-15.4l2.1-194.7c0,0,76.2-72.9,77.6-71.7
						c1.5,1.2,224.6,29.3,291.9-8c67.3-37.3,136.6-111.1,142.8-124.8s35.9-62.7,42.8-80.1c6.9-17.4,35.8-89.6,59.7-105.6
						c0,0-16.3-1.3-28.9,9.4c0,0,44.8-66.7,79.9-73.2c35.1-6.4,40.2,8,15.5,34c-24.7,26-57.2,93.9-84.7,148.2
						s-48.9,108.6-100.6,184.5s-78,93.6-133.9,121c-55.9,27.4-42,54.3-117.2,67.8s-93.6,19.9-93.6,19.9l-31.7,11.8
						c0,0-15.1,11.8-13.4,29.6C1273.1,922.8,1257.6,965,1257.6,965z" class="st2"></path>
					<path d="M752.9,916.6c1.2,1.5,20.6,45.3,23.1,45.3s92.4,0,92.4,0l14.5-107.4c0,0,25.2,12.3,91.7,12.3s93,4,93,4
						v-95.4c0,0-125.9-46.5-131.8-48.6c-5.8-2.2-127.8-10.8-127.8-10.8s-79.7,93-78.8,93.6S752.9,916.6,752.9,916.6z" class="st2"></path>
					<path d="M375.4,453.9l131.4-14.3l160,232.5l-4,127.9l-2.6,48.1c0,0-52.2-28.3-87.4-56.6
						c-35.3-28.3-102.9-88.7-144.5-170.5S375.4,453.9,375.4,453.9z" class="st2"></path>
					<path d="M564.2,189.7l-27.4-59.9l43.6-24.9c0,0,37.1,63,44.7,97.3c7.6,34.3,31.2,94.9,3.1,106.7
						c-28.1,11.8-51.3-6.2-51.3-6.2l-2.8-50.2L564.2,189.7z" class="st2"></path>
					<path d="M121.6,323.3c0,0,0,10.3,0-35.1s15.7-98,90.7-123.1s194.1-66,245.5-66s114.2,21.6,114.2,21.6
						s-15.5,8.7-1.4,32.2s32.5,62.6,44.7,124.3l14.1-5.7c0,0,0.7,68.5,4.2,120.2s11.5,93.8,11.5,93.8s0.9,28.5,35.3,28.5
						c66.2,0,144.1-123.4,311.9-123.4c143.3,0,219.6,89.3,291.3,155.5c71.7,66.1,132.3,88.5,201,88.5s150.6-56.3,182.2-110.5
						c31.5-54.2,53.8-66.4,53.8-66.4s-19.4,66-58.6,118.3c-39.2,52.2-154.8,207.9-379.6,206.5l-17.4-39.5l-12.2-12.4
						c0,0-1.1,0-7.3,0c-6.2,0-17.6,23.8-17.6,50.3c0,26.5-1.1,145.3-63.1,151.8l-51.8-25.9c0,0-2.6-47.2-2.6-85.8
						s11.8-82.9,11.8-82.9h-37.4l-18.7,51c0,0-15.3,1.7-40.4,5.8c-25,4.1-49.4,4.2-81.5-2.9c-32.1-7.1-68.5-13.3-68.5-13.3
						s-44.3-12.5-44.3,20.4s-4.2,110.1-71,150l-46.8-46.5V740.1c0,0-54.8,0.1-103.1-29.4C555.1,676.9,442,558,457.8,443.9
						c0,0-144.2,16.1-195.9,0.8c-51.6-15.3-76.9-16.3-100.1-40.6S121.6,323.3,121.6,323.3z" class="st3"></path>
					<g>
						<circle r="69.8" cy="201.7" cx="457.8" class="st4"></circle>
						<circle r="23.1" cy="179" cx="445.5" class="st1"></circle>
					</g>
					<circle r="23.6" cy="236.1" cx="193.1" class="st4"></circle>
					<polygon points="847.4,964.2 852.1,978.8 905.3,978.8 915,956.3 864.9,958.1"></polygon>
					<polygon points="1055.8,966.4 1054.6,978.9 1095.4,978.9 1110,966.4"></polygon>
					<g>
						<path d="M866.8,336.7c-14.3,4.9-28.4,10.7-42.3,17.4c-8.9,4.3-17.5,8.8-25.6,13.5c5.6,10.7,13.2,19.9,21.7,26.4
							c15.9-8.8,33.2-16.9,52.1-23.7C873.4,359.7,871.3,347.9,866.8,336.7z M1121.9,343c-0.5-0.2-1-0.4-1.5-0.6
							c-4.1,11.7-5.5,23.6-4,34.6c18,7.4,36.1,16.5,54,27.6c8.9-5.6,17.2-14.3,23.4-25.1C1171.4,365.2,1147.4,352.9,1121.9,343z
							 M990.2,316.9h-0.4c-11.8,0-23.4,0.5-34.9,1.5c2.1,13,7.4,24.5,14.5,32.8c6.6-0.4,13.4-0.5,20.3-0.5h0.4
							c9.2,0,19.2,0.6,29.8,1.7c7.3-7.9,12.8-19.2,15.3-32C1019.9,318,1004.7,316.9,990.2,316.9z M866.8,336.7
							c-14.3,4.9-28.4,10.7-42.3,17.4c-8.9,4.3-17.5,8.8-25.6,13.5c5.6,10.7,13.2,19.9,21.7,26.4c15.9-8.8,33.2-16.9,52.1-23.7
							C873.4,359.7,871.3,347.9,866.8,336.7z M1375.4,544.8c0,0.1-0.1,0.1-0.1,0.2c-5.1,8.1-7.5,17.5-6.7,25.7
							c0.3,3.6,1.6,9.9,6.4,13.8c1.4,0.8,2.8,1.6,4.2,2.4c10.4,3.7,25.3-4,34.1-18.3c0.4-0.6,0.7-1.2,1.1-1.8
							C1401.2,561.2,1388.3,553.8,1375.4,544.8z M1265.2,439.9c-2.8-3-5.6-6-8.5-8.9c-4.3,4.3-8.2,9.3-11.6,14.8
							c-2.9,4.7-5.3,9.5-7.1,14.4c0.8,0.9,1.6,1.7,2.4,2.6c17.2,18.7,33.6,36.3,49.7,52.4c9.2-5.6,17.5-13.7,24-23.6
							C1298.7,476.1,1282.6,458.8,1265.2,439.9z M1121.9,343c-0.5-0.2-1-0.4-1.5-0.6c-4.1,11.7-5.5,23.6-4,34.6
							c18,7.4,36.1,16.5,54,27.6c8.9-5.6,17.2-14.3,23.4-25.1C1171.4,365.2,1147.4,352.9,1121.9,343z M990.2,316.9h-0.4
							c-11.8,0-23.4,0.5-34.9,1.5c2.1,13,7.4,24.5,14.5,32.8c6.6-0.4,13.4-0.5,20.3-0.5h0.4c9.2,0,19.2,0.6,29.8,1.7
							c7.3-7.9,12.8-19.2,15.3-32C1019.9,318,1004.7,316.9,990.2,316.9z M866.8,336.7c-14.3,4.9-28.4,10.7-42.3,17.4
							c-8.9,4.3-17.5,8.8-25.6,13.5c5.6,10.7,13.2,19.9,21.7,26.4c15.9-8.8,33.2-16.9,52.1-23.7
							C873.4,359.7,871.3,347.9,866.8,336.7z M1641.1,496.7c-2.9-3.8-6.2-7-9.7-9.6c-9.6,12.1-19.2,23-28.7,32.6
							c0.8,1.4,1.7,2.7,2.7,4c5.8,7.6,13.6,13.3,21.5,15.5c0.9,0.2,1.9,0.5,3.1,0.7c6.8-7,13.4-14.4,20-22.2
							C1649.1,510.8,1646.1,503.3,1641.1,496.7z M1548.4,566.4c-0.7-1.5-1.5-2.9-2.3-4.2c-13.5,6.8-27.2,11.4-41.4,14.1
							c0.8,3.2,1.9,6.4,3.4,9.5c4.5,9.3,11.5,16.4,18.7,19.9c8.3-2.3,16.4-5.2,24.4-8.7c0.6-1.6,1-3.1,1.2-4.3
							C1554,584.6,1552.5,575,1548.4,566.4z M1375.4,544.8c0,0.1-0.1,0.1-0.1,0.2c-5.1,8.1-7.5,17.5-6.7,25.7
							c0.3,3.6,1.6,9.9,6.4,13.8c1.4,0.8,2.8,1.6,4.2,2.4c10.4,3.7,25.3-4,34.1-18.3c0.4-0.6,0.7-1.2,1.1-1.8
							C1401.2,561.2,1388.3,553.8,1375.4,544.8z M1265.2,439.9c-2.8-3-5.6-6-8.5-8.9c-4.3,4.3-8.2,9.3-11.6,14.8
							c-2.9,4.7-5.3,9.5-7.1,14.4c0.8,0.9,1.6,1.7,2.4,2.6c17.2,18.7,33.6,36.3,49.7,52.4c9.2-5.6,17.5-13.7,24-23.6
							C1298.7,476.1,1282.6,458.8,1265.2,439.9z M1121.9,343c-0.5-0.2-1-0.4-1.5-0.6c-4.1,11.7-5.5,23.6-4,34.6
							c18,7.4,36.1,16.5,54,27.6c8.9-5.6,17.2-14.3,23.4-25.1C1171.4,365.2,1147.4,352.9,1121.9,343z M990.2,316.9h-0.4
							c-11.8,0-23.4,0.5-34.9,1.5c2.1,13,7.4,24.5,14.5,32.8c6.6-0.4,13.4-0.5,20.3-0.5h0.4c9.2,0,19.2,0.6,29.8,1.7
							c7.3-7.9,12.8-19.2,15.3-32C1019.9,318,1004.7,316.9,990.2,316.9z M866.8,336.7c-14.3,4.9-28.4,10.7-42.3,17.4
							c-8.9,4.3-17.5,8.8-25.6,13.5c5.6,10.7,13.2,19.9,21.7,26.4c15.9-8.8,33.2-16.9,52.1-23.7
							C873.4,359.7,871.3,347.9,866.8,336.7z M1793.8,322.2c-0.5-7.8-4.3-16.1-10.4-22.7c-0.3-0.4-0.6-0.7-1-1
							c-1.6,1.2-3.2,2.4-4.7,3.7c-10.5,7.8-20,15.9-29.3,25.3c0.6,0.7,1.2,1.5,1.8,2.2c6.1,6.7,13.9,11.2,21.6,12.5
							c2.5,0.4,6.6,0.7,10.6-0.6c3-2.6,6-5.1,9.1-7.6C1793.8,329.8,1794,325.1,1793.8,322.2z M1641.1,496.7c-2.9-3.8-6.2-7-9.7-9.6
							c-9.6,12.1-19.2,23-28.7,32.6c0.8,1.4,1.7,2.7,2.7,4c5.8,7.6,13.6,13.3,21.5,15.5c0.9,0.2,1.9,0.5,3.1,0.7
							c6.8-7,13.4-14.4,20-22.2C1649.1,510.8,1646.1,503.3,1641.1,496.7z M1548.4,566.4c-0.7-1.5-1.5-2.9-2.3-4.2
							c-13.5,6.8-27.2,11.4-41.4,14.1c0.8,3.2,1.9,6.4,3.4,9.5c4.5,9.3,11.5,16.4,18.7,19.9c8.3-2.3,16.4-5.2,24.4-8.7
							c0.6-1.6,1-3.1,1.2-4.3C1554,584.6,1552.5,575,1548.4,566.4z M1375.4,544.8c0,0.1-0.1,0.1-0.1,0.2c-5.1,8.1-7.5,17.5-6.7,25.7
							c0.3,3.6,1.6,9.9,6.4,13.8c1.4,0.8,2.8,1.6,4.2,2.4c10.4,3.7,25.3-4,34.1-18.3c0.4-0.6,0.7-1.2,1.1-1.8
							C1401.2,561.2,1388.3,553.8,1375.4,544.8z M1265.2,439.9c-2.8-3-5.6-6-8.5-8.9c-4.3,4.3-8.2,9.3-11.6,14.8
							c-2.9,4.7-5.3,9.5-7.1,14.4c0.8,0.9,1.6,1.7,2.4,2.6c17.2,18.7,33.6,36.3,49.7,52.4c9.2-5.6,17.5-13.7,24-23.6
							C1298.7,476.1,1282.6,458.8,1265.2,439.9z M1121.9,343c-0.5-0.2-1-0.4-1.5-0.6c-4.1,11.7-5.5,23.6-4,34.6
							c18,7.4,36.1,16.5,54,27.6c8.9-5.6,17.2-14.3,23.4-25.1C1171.4,365.2,1147.4,352.9,1121.9,343z M990.2,316.9h-0.4
							c-11.8,0-23.4,0.5-34.9,1.5c2.1,13,7.4,24.5,14.5,32.8c6.6-0.4,13.4-0.5,20.3-0.5h0.4c9.2,0,19.2,0.6,29.8,1.7
							c7.3-7.9,12.8-19.2,15.3-32C1019.9,318,1004.7,316.9,990.2,316.9z M866.8,336.7c-14.3,4.9-28.4,10.7-42.3,17.4
							c-8.9,4.3-17.5,8.8-25.6,13.5c5.6,10.7,13.2,19.9,21.7,26.4c15.9-8.8,33.2-16.9,52.1-23.7
							C873.4,359.7,871.3,347.9,866.8,336.7z M1793.8,322.2c-0.5-7.8-4.3-16.1-10.4-22.7c-0.3-0.4-0.6-0.7-1-1
							c-1.6,1.2-3.2,2.4-4.7,3.7c-10.5,7.8-20,15.9-29.3,25.3c0.6,0.7,1.2,1.5,1.8,2.2c6.1,6.7,13.9,11.2,21.6,12.5
							c2.5,0.4,6.6,0.7,10.6-0.6c3-2.6,6-5.1,9.1-7.6C1793.8,329.8,1794,325.1,1793.8,322.2z M1641.1,496.7c-2.9-3.8-6.2-7-9.7-9.6
							c-9.6,12.1-19.2,23-28.7,32.6c0.8,1.4,1.7,2.7,2.7,4c5.8,7.6,13.6,13.3,21.5,15.5c0.9,0.2,1.9,0.5,3.1,0.7
							c6.8-7,13.4-14.4,20-22.2C1649.1,510.8,1646.1,503.3,1641.1,496.7z M1548.4,566.4c-0.7-1.5-1.5-2.9-2.3-4.2
							c-13.5,6.8-27.2,11.4-41.4,14.1c0.8,3.2,1.9,6.4,3.4,9.5c4.5,9.3,11.5,16.4,18.7,19.9c8.3-2.3,16.4-5.2,24.4-8.7
							c0.6-1.6,1-3.1,1.2-4.3C1554,584.6,1552.5,575,1548.4,566.4z M1375.4,544.8c0,0.1-0.1,0.1-0.1,0.2c-5.1,8.1-7.5,17.5-6.7,25.7
							c0.3,3.6,1.6,9.9,6.4,13.8c1.4,0.8,2.8,1.6,4.2,2.4c10.4,3.7,25.3-4,34.1-18.3c0.4-0.6,0.7-1.2,1.1-1.8
							C1401.2,561.2,1388.3,553.8,1375.4,544.8z M1265.2,439.9c-2.8-3-5.6-6-8.5-8.9c-4.3,4.3-8.2,9.3-11.6,14.8
							c-2.9,4.7-5.3,9.5-7.1,14.4c0.8,0.9,1.6,1.7,2.4,2.6c17.2,18.7,33.6,36.3,49.7,52.4c9.2-5.6,17.5-13.7,24-23.6
							C1298.7,476.1,1282.6,458.8,1265.2,439.9z M1121.9,343c-0.5-0.2-1-0.4-1.5-0.6c-4.1,11.7-5.5,23.6-4,34.6
							c18,7.4,36.1,16.5,54,27.6c8.9-5.6,17.2-14.3,23.4-25.1C1171.4,365.2,1147.4,352.9,1121.9,343z M990.2,316.9h-0.4
							c-11.8,0-23.4,0.5-34.9,1.5c2.1,13,7.4,24.5,14.5,32.8c6.6-0.4,13.4-0.5,20.3-0.5h0.4c9.2,0,19.2,0.6,29.8,1.7
							c7.3-7.9,12.8-19.2,15.3-32C1019.9,318,1004.7,316.9,990.2,316.9z M866.8,336.7c-14.3,4.9-28.4,10.7-42.3,17.4
							c-8.9,4.3-17.5,8.8-25.6,13.5c5.6,10.7,13.2,19.9,21.7,26.4c15.9-8.8,33.2-16.9,52.1-23.7
							C873.4,359.7,871.3,347.9,866.8,336.7z M1793.8,322.2c-0.5-7.8-4.3-16.1-10.4-22.7c-0.3-0.4-0.6-0.7-1-1
							c-1.6,1.2-3.2,2.4-4.7,3.7c-10.5,7.8-20,15.9-29.3,25.3c0.6,0.7,1.2,1.5,1.8,2.2c6.1,6.7,13.9,11.2,21.6,12.5
							c2.5,0.4,6.6,0.7,10.6-0.6c3-2.6,6-5.1,9.1-7.6C1793.8,329.8,1794,325.1,1793.8,322.2z M1641.1,496.7c-2.9-3.8-6.2-7-9.7-9.6
							c-9.6,12.1-19.2,23-28.7,32.6c0.8,1.4,1.7,2.7,2.7,4c5.8,7.6,13.6,13.3,21.5,15.5c0.9,0.2,1.9,0.5,3.1,0.7
							c6.8-7,13.4-14.4,20-22.2C1649.1,510.8,1646.1,503.3,1641.1,496.7z M1548.4,566.4c-0.7-1.5-1.5-2.9-2.3-4.2
							c-13.5,6.8-27.2,11.4-41.4,14.1c0.8,3.2,1.9,6.4,3.4,9.5c4.5,9.3,11.5,16.4,18.7,19.9c8.3-2.3,16.4-5.2,24.4-8.7
							c0.6-1.6,1-3.1,1.2-4.3C1554,584.6,1552.5,575,1548.4,566.4z M1375.4,544.8c0,0.1-0.1,0.1-0.1,0.2c-5.1,8.1-7.5,17.5-6.7,25.7
							c0.3,3.6,1.6,9.9,6.4,13.8c1.4,0.8,2.8,1.6,4.2,2.4c10.4,3.7,25.3-4,34.1-18.3c0.4-0.6,0.7-1.2,1.1-1.8
							C1401.2,561.2,1388.3,553.8,1375.4,544.8z M1265.2,439.9c-2.8-3-5.6-6-8.5-8.9c-4.3,4.3-8.2,9.3-11.6,14.8
							c-2.9,4.7-5.3,9.5-7.1,14.4c0.8,0.9,1.6,1.7,2.4,2.6c17.2,18.7,33.6,36.3,49.7,52.4c9.2-5.6,17.5-13.7,24-23.6
							C1298.7,476.1,1282.6,458.8,1265.2,439.9z M1121.9,343c-0.5-0.2-1-0.4-1.5-0.6c-4.1,11.7-5.5,23.6-4,34.6
							c18,7.4,36.1,16.5,54,27.6c8.9-5.6,17.2-14.3,23.4-25.1C1171.4,365.2,1147.4,352.9,1121.9,343z M990.2,316.9h-0.4
							c-11.8,0-23.4,0.5-34.9,1.5c2.1,13,7.4,24.5,14.5,32.8c6.6-0.4,13.4-0.5,20.3-0.5h0.4c9.2,0,19.2,0.6,29.8,1.7
							c7.3-7.9,12.8-19.2,15.3-32C1019.9,318,1004.7,316.9,990.2,316.9z M866.8,336.7c-14.3,4.9-28.4,10.7-42.3,17.4
							c-8.9,4.3-17.5,8.8-25.6,13.5c5.6,10.7,13.2,19.9,21.7,26.4c15.9-8.8,33.2-16.9,52.1-23.7
							C873.4,359.7,871.3,347.9,866.8,336.7z M1793.8,322.2c-0.5-7.8-4.3-16.1-10.4-22.7c-0.3-0.4-0.6-0.7-1-1
							c-1.6,1.2-3.2,2.4-4.7,3.7c-10.5,7.8-20,15.9-29.3,25.3c0.6,0.7,1.2,1.5,1.8,2.2c6.1,6.7,13.9,11.2,21.6,12.5
							c2.5,0.4,6.6,0.7,10.6-0.6c3-2.6,6-5.1,9.1-7.6C1793.8,329.8,1794,325.1,1793.8,322.2z M1641.1,496.7c-2.9-3.8-6.2-7-9.7-9.6
							c-9.6,12.1-19.2,23-28.7,32.6c0.8,1.4,1.7,2.7,2.7,4c5.8,7.6,13.6,13.3,21.5,15.5c0.9,0.2,1.9,0.5,3.1,0.7
							c6.8-7,13.4-14.4,20-22.2C1649.1,510.8,1646.1,503.3,1641.1,496.7z M1548.4,566.4c-0.7-1.5-1.5-2.9-2.3-4.2
							c-13.5,6.8-27.2,11.4-41.4,14.1c0.8,3.2,1.9,6.4,3.4,9.5c4.5,9.3,11.5,16.4,18.7,19.9c8.3-2.3,16.4-5.2,24.4-8.7
							c0.6-1.6,1-3.1,1.2-4.3C1554,584.6,1552.5,575,1548.4,566.4z M1375.4,544.8c0,0.1-0.1,0.1-0.1,0.2c-5.1,8.1-7.5,17.5-6.7,25.7
							c0.3,3.6,1.6,9.9,6.4,13.8c1.4,0.8,2.8,1.6,4.2,2.4c10.4,3.7,25.3-4,34.1-18.3c0.4-0.6,0.7-1.2,1.1-1.8
							C1401.2,561.2,1388.3,553.8,1375.4,544.8z M1265.2,439.9c-2.8-3-5.6-6-8.5-8.9c-4.3,4.3-8.2,9.3-11.6,14.8
							c-2.9,4.7-5.3,9.5-7.1,14.4c0.8,0.9,1.6,1.7,2.4,2.6c17.2,18.7,33.6,36.3,49.7,52.4c9.2-5.6,17.5-13.7,24-23.6
							C1298.7,476.1,1282.6,458.8,1265.2,439.9z M1121.9,343c-0.5-0.2-1-0.4-1.5-0.6c-4.1,11.7-5.5,23.6-4,34.6
							c18,7.4,36.1,16.5,54,27.6c8.9-5.6,17.2-14.3,23.4-25.1C1171.4,365.2,1147.4,352.9,1121.9,343z M990.2,316.9h-0.4
							c-11.8,0-23.4,0.5-34.9,1.5c2.1,13,7.4,24.5,14.5,32.8c6.6-0.4,13.4-0.5,20.3-0.5h0.4c9.2,0,19.2,0.6,29.8,1.7
							c7.3-7.9,12.8-19.2,15.3-32C1019.9,318,1004.7,316.9,990.2,316.9z M866.8,336.7c-14.3,4.9-28.4,10.7-42.3,17.4
							c-8.9,4.3-17.5,8.8-25.6,13.5c5.6,10.7,13.2,19.9,21.7,26.4c15.9-8.8,33.2-16.9,52.1-23.7
							C873.4,359.7,871.3,347.9,866.8,336.7z M1793.8,322.2c-0.5-7.8-4.3-16.1-10.4-22.7c-0.3-0.4-0.6-0.7-1-1
							c-1.6,1.2-3.2,2.4-4.7,3.7c-10.5,7.8-20,15.9-29.3,25.3c0.6,0.7,1.2,1.5,1.8,2.2c6.1,6.7,13.9,11.2,21.6,12.5
							c2.5,0.4,6.6,0.7,10.6-0.6c3-2.6,6-5.1,9.1-7.6C1793.8,329.8,1794,325.1,1793.8,322.2z M1641.1,496.7c-2.9-3.8-6.2-7-9.7-9.6
							c-9.6,12.1-19.2,23-28.7,32.6c0.8,1.4,1.7,2.7,2.7,4c5.8,7.6,13.6,13.3,21.5,15.5c0.9,0.2,1.9,0.5,3.1,0.7
							c6.8-7,13.4-14.4,20-22.2C1649.1,510.8,1646.1,503.3,1641.1,496.7z M1548.4,566.4c-0.7-1.5-1.5-2.9-2.3-4.2
							c-13.5,6.8-27.2,11.4-41.4,14.1c0.8,3.2,1.9,6.4,3.4,9.5c4.5,9.3,11.5,16.4,18.7,19.9c8.3-2.3,16.4-5.2,24.4-8.7
							c0.6-1.6,1-3.1,1.2-4.3C1554,584.6,1552.5,575,1548.4,566.4z M1375.4,544.8c0,0.1-0.1,0.1-0.1,0.2c-5.1,8.1-7.5,17.5-6.7,25.7
							c0.3,3.6,1.6,9.9,6.4,13.8c1.4,0.8,2.8,1.6,4.2,2.4c10.4,3.7,25.3-4,34.1-18.3c0.4-0.6,0.7-1.2,1.1-1.8
							C1401.2,561.2,1388.3,553.8,1375.4,544.8z M1265.2,439.9c-2.8-3-5.6-6-8.5-8.9c-4.3,4.3-8.2,9.3-11.6,14.8
							c-2.9,4.7-5.3,9.5-7.1,14.4c0.8,0.9,1.6,1.7,2.4,2.6c17.2,18.7,33.6,36.3,49.7,52.4c9.2-5.6,17.5-13.7,24-23.6
							C1298.7,476.1,1282.6,458.8,1265.2,439.9z M1121.9,343c-0.5-0.2-1-0.4-1.5-0.6c-4.1,11.7-5.5,23.6-4,34.6
							c18,7.4,36.1,16.5,54,27.6c8.9-5.6,17.2-14.3,23.4-25.1C1171.4,365.2,1147.4,352.9,1121.9,343z M990.2,316.9h-0.4
							c-11.8,0-23.4,0.5-34.9,1.5c2.1,13,7.4,24.5,14.5,32.8c6.6-0.4,13.4-0.5,20.3-0.5h0.4c9.2,0,19.2,0.6,29.8,1.7
							c7.3-7.9,12.8-19.2,15.3-32C1019.9,318,1004.7,316.9,990.2,316.9z M866.8,336.7c-14.3,4.9-28.4,10.7-42.3,17.4
							c-8.9,4.3-17.5,8.8-25.6,13.5c5.6,10.7,13.2,19.9,21.7,26.4c15.9-8.8,33.2-16.9,52.1-23.7
							C873.4,359.7,871.3,347.9,866.8,336.7z M1793.8,322.2c-0.5-7.8-4.3-16.1-10.4-22.7c-0.3-0.4-0.6-0.7-1-1
							c-1.6,1.2-3.2,2.4-4.7,3.7c-10.5,7.8-20,15.9-29.3,25.3c0.6,0.7,1.2,1.5,1.8,2.2c6.1,6.7,13.9,11.2,21.6,12.5
							c2.5,0.4,6.6,0.7,10.6-0.6c3-2.6,6-5.1,9.1-7.6C1793.8,329.8,1794,325.1,1793.8,322.2z M1631.4,487.1
							c-9.6,12.1-19.2,23-28.7,32.6c0.8,1.4,1.7,2.7,2.7,4c5.8,7.6,13.6,13.3,21.5,15.5c0.9,0.2,1.9,0.5,3.1,0.7
							c6.8-7,13.4-14.4,20-22.2c-0.9-6.8-3.8-14.3-8.9-21C1638.2,492.9,1634.9,489.6,1631.4,487.1z M1546.1,562.1
							c-13.5,6.8-27.2,11.4-41.4,14.1c0.8,3.2,1.9,6.4,3.4,9.5c4.5,9.3,11.5,16.4,18.7,19.9c8.3-2.3,16.4-5.2,24.4-8.7
							c0.6-1.6,1-3.1,1.2-4.3c1.6-8,0.2-17.6-3.9-26.2C1547.7,564.9,1546.9,563.5,1546.1,562.1z M1375.3,545
							c-5.1,8.1-7.5,17.5-6.7,25.7c0.3,3.6,1.6,9.9,6.4,13.8c1.4,0.8,2.8,1.6,4.2,2.4c10.4,3.7,25.3-4,34.1-18.3
							c0.4-0.6,0.7-1.2,1.1-1.8c-13.2-5.5-26.1-12.9-39-21.9C1375.4,544.9,1375.3,544.9,1375.3,545z M1256.7,431
							c-4.3,4.3-8.2,9.3-11.6,14.8c-2.9,4.7-5.3,9.5-7.1,14.4c0.8,0.9,1.6,1.7,2.4,2.6c17.2,18.7,33.6,36.3,49.7,52.4
							c9.2-5.6,17.5-13.7,24-23.6c-15.4-15.5-31.6-32.7-49-51.6C1262.4,436.9,1259.6,433.9,1256.7,431z M1252.6,860.6
							c8.9-6.1,20.4-10,35.5-10c0.7,0,1.3,0,2,0l0.1-120l-37.5,0L1252.6,860.6z M1145.6,945.3c1.1,1.9,2.2,3.9,3.4,5.8h49.7
							c5.2,0,8.7-1.6,11.8-5.8l-30.9,0L1145.6,945.3z M1193.7,379.6c-22.3-14.4-46.2-26.7-71.8-36.6c-0.5-0.2-1-0.4-1.5-0.6
							c-4.1,11.7-5.5,23.6-4,34.6c18,7.4,36.1,16.5,54,27.6C1179.2,399.1,1187.4,390.4,1193.7,379.6z M1054.7,807
							c0,41.4-0.1,104.7-0.1,128.6c0,6.1,0,9.6,0,9.6l-17.5,0l-149.9-0.1c0,0,0.1-120.3,0.1-142.4c0-22.1,0.9-60-17-60h-0.1
							c-15.2,0-18,6.5-18,6.5l-0.2,195.9l-59.5-0.1l-40.8,0c1,1.2,1.9,2.5,2.9,3.7c0.6,0.8,1.2,1.6,1.9,2.4h322.7
							c2.3-2.1,4.3-4.2,6.3-6.2c0-2.5,0-18.1,0-39.1c0-31.5,0.1-74.8,0.1-103.4c0-49.4,13.3-62.8,13.3-62.8s-6.7-4.4-23.8-4.5
							C1075.2,735.1,1054.8,755.1,1054.7,807z M989.8,350.6h0.4c9.2,0,19.2,0.6,29.8,1.7c7.3-7.9,12.8-19.2,15.3-32
							c-15.4-2.2-30.6-3.3-45.1-3.4h-0.4c-11.8,0-23.4,0.5-34.9,1.5c2.1,13,7.4,24.5,14.5,32.8C976.1,350.8,982.9,350.6,989.8,350.6
							z M820.6,394.1c15.9-8.8,33.2-16.9,52.1-23.7c0.7-10.7-1.4-22.4-5.9-33.7c-14.3,4.9-28.4,10.7-42.3,17.4
							c-8.9,4.3-17.5,8.8-25.6,13.5C804.5,378.3,812.1,387.6,820.6,394.1z M657.8,460.8c-1.7-15.1-2.5-30.4-2.7-45.6
							c-5,7.3-9.1,15.9-11.6,25.1c-5.7,20.3-3.7,40.4,3.9,53.5c2.8,0.5,6.1,0.7,9.7,0.7c0,0,0,0,0,0c17.3,0,35-9.7,55-24
							c1.3-3.2,2.5-6.6,3.5-10c2.2-7.7,3.3-15.6,3.3-23.2c0-4.6-0.4-9-1.2-13.2C694.6,441.9,671,460.1,657.8,460.8z M1805.7,282.9
							c-7.9,4.7-15.7,9.8-23.2,15.6c-1.6,1.2-3.2,2.4-4.7,3.7c-10.5,7.8-20,15.9-29.3,25.3c-6.3,6.3-12.4,13.1-18.7,20.8
							c-0.4,0.5-0.8,1-1.2,1.5c-5.5,6.7-11.1,13.9-17,21.9c-8,10.9-16.5,23.1-25.9,37.1c-4.9,7.3-10,15-15.4,23.3
							c-0.4,0.6-0.8,1.1-1.1,1.7c-1.4,2.1-2.8,4.3-4.2,6.5c-4.1,6.3-8.2,12.3-12.2,18.2c-1.5,2.2-3,4.3-4.6,6.5
							c-5.6,7.8-11.1,15.2-16.6,22.2c-9.6,12.1-19.2,23-28.7,32.6c-6.9,6.9-13.8,13.2-20.7,18.9c-4,3.3-8.1,6.4-12.1,9.3
							c-7.8,5.5-15.8,10.3-23.8,14.3c-13.5,6.8-27.2,11.4-41.4,14.1c-9,1.7-18.3,2.6-27.7,2.7c-0.8,0-1.5,0-2.3,0h-0.2
							c-11.6,0-22.6-1.2-33.3-3.6c-9.1-2-18-4.9-26.8-8.6c-13.2-5.5-26.1-12.9-39-21.9c-7.3-5.1-14.6-10.8-22.1-17
							c-4.3-3.6-8.7-7.4-13.1-11.4c-8.5-7.7-17.2-16-26.1-24.9c-15.4-15.5-31.6-32.7-49-51.6c-2.8-3-5.6-6-8.5-8.9
							c-8.4-8.5-17.1-16.6-26.2-24.2c-2.6-2.2-5.1-4.3-7.7-6.3c-9.4-7.4-19.1-14.4-29.1-20.9c-22.3-14.4-46.2-26.7-71.8-36.6
							c-0.5-0.2-1-0.4-1.5-0.6c-11.1-4.3-22.5-8-33.8-11.3c-5.4-1.5-10.8-2.9-16.1-4.2c-11.7-2.8-23.5-5.1-35.1-6.7
							c-15.4-2.2-30.6-3.3-45.1-3.4h-0.4c-11.8,0-23.4,0.5-34.9,1.5c-12,1-23.8,2.6-35.4,4.7c-6.1,1.1-12.2,2.4-18.3,3.8
							c-11.6,2.7-23.1,6-34.4,9.9c-14.3,4.9-28.4,10.7-42.3,17.4c-8.9,4.3-17.5,8.8-25.6,13.5c-10.7,6.1-20.8,12.5-30.3,18.9
							c-7.2,4.8-14,9.7-20.5,14.4c-10.6,7.8-20.4,15.4-29.5,22.4c-0.3,0.3-0.7,0.5-1,0.8c-23,17.8-46.7,36-59.8,36.6
							c-1.7-15.1-2.5-30.4-2.7-45.6c-0.3-16.3,0.1-32.6,0.6-48.7c0.1-3.7,0.2-7.5,0.3-11.2c2.4-73,4.8-148.4-40.7-219.4
							c-22.8-35.6-57.8-61.3-104-76.5c-38.5-12.7-75.4-14.6-93.9-14.7h-0.3c-45.6,0-89.2,11.5-149.1,31.5
							c-7.2,2.4-14.3,4.7-21.3,6.9c-55.1,17.8-107.2,34.6-148.2,81.8c-21.1,24.3-33.4,56.9-35.5,94.2c-1.5,26.5,2.6,46.6,3,48.8
							c1.5,7.2,5.4,13.6,10.9,18.4c1.3,1.1,11.6,9.8,30.2,19.5c-2,8.7-0.6,18.3,4.4,26.3c25.1,40.6,61.5,66.9,111.2,80.3
							c38.3,10.3,82.3,13.1,139.4,13.5c0,0.8,0.1,1.5,0.2,2.2c5.8,59.6,24.1,117,54.4,170.5c24,42.4,55.5,82.4,93.6,118.9
							c64.6,61.9,126,92.5,128.6,93.8c3.1,1.5,6.4,2.6,9.7,3.1l-0.1,68l0,22.5c0,2.1,0.2,4.2,0.6,6.3c0.1,0.6,0.2,1.1,0.4,1.7
							c3.5,14.8,16.9,25.7,32.7,25.8l155,0.1l14.7,0c0,0,0,0,0,0c6.2,0,12.3-1.7,17.5-4.9c4.9,3,10.5,4.7,16.4,4.9
							c0.4,0,0.8,0,1.2,0l112.1,0.1c0.3,0,0.6,0,0.9,0l12.5,0l41.9,0c0,0,0,0,0,0c0.5,0,0.9,0,1.4,0c5.1-0.2,9.8-1.5,14.1-3.7
							c4.1,2.1,8.6,3.4,13.4,3.7c0.5,0,0.9,0,1.4,0c0.2,0,0.5,0,0.7,0l167.1,0.2c0,0,0,0,0,0c1.3,0,2.5-0.1,3.8-0.2
							c7.5-0.9,14.6-4.2,20-9.6c5-5,8.2-11.3,9.4-18.1c0.3-1.9,0.5-3.8,0.5-5.7l0.1-54c1.3,0.1,2.5,0.2,3.8,0.2
							c1.3,0,2.6-0.1,3.9-0.2c10.6-1.2,21.3-2.8,32-4.8c13.8-2.6,27.7-5.8,41.6-9.7c37.4-10.4,74.8-25.4,111.9-44.8
							c52.7-27.6,104.7-64.6,150.4-107c39.5-36.6,69.6-81.5,93.6-127.2c6.4-12.1,12.3-24.2,17.8-36.3c16.6-35.9,29.9-71.2,41.6-102
							c2.6-6.8,5.1-13.4,7.5-19.8c16.7-43.5,35-73,46.9-89.5c0.3-0.4,55.2-71.3,111-109C1948.3,241.4,1873.3,243,1805.7,282.9z
							 M1821,316.4c-6.9,8.2-20.3,25.5-35.2,52.9c-8.7,16-18,35.5-26.9,58.6c-10.5,27.4-22,58.9-35.8,91.6
							c-4.7,11.2-9.8,22.6-15.1,33.9c-24.8,52.8-56.7,105.9-101.1,147.1c-75.4,69.9-177.2,133-288.7,153.4
							c-9.3,1.7-18.7,3.1-28.1,4.2v-7.5l0.1-120l-37.5,0l-0.1,130.1l0,48.3l0,36.5l-11.1,0l-30.9,0l-30.9,0l-34.1,0l-60.1-0.1
							c0,0,0-0.1,0-0.3c0-2.5,0-18.1,0-39.1c0-31.5,0.1-74.8,0.1-103.4c0-49.4,13.3-62.8,13.3-62.8s-6.7-4.4-23.8-4.5
							c0,0-20.4,20-20.5,71.9c0,41.4-0.1,104.7-0.1,128.6c0,6.1,0,9.6,0,9.6l-17.5,0l-149.9-0.1c0,0,0.1-120.3,0.1-142.4
							c0-22.1,0.9-60-17-60h-0.1c-15.2,0-18,6.5-18,6.5l-0.2,195.9l-59.5-0.1l-40.8,0l-69.3-0.1v-9.5l0-30.8l0.1-168.5
							c0,0-9.1-4-18.5-4c-1.7,0-3.5,0.1-5.2,0.5c0,0-4.9,27.1-5,88.6c0,0-234.6-115.7-257.9-356.3l106.4-22
							c0,0-10.9-10.5-125.9-10.6c-115.1-0.1-192.3-6.9-236.1-77.8c1,0.6,33.7,21.3,110,21.4h0.2c77.5,0,150.4-43.7,186.8-43.7
							c0,0,0,0,0,0h0.1c36.4,0,56.4-18.5,56.4-18.5s-0.1,0-0.2,0c-2.5,0-24.3-0.2-45.6-5.7c-14.1-3.7-22.7-6.7-30.7-6.7
							c-4.9,0-9.6,1.1-15.2,3.8c-14.9,7.1-97.4,37.9-160.1,37.9H242c-94.5-0.1-142.8-41.9-142.8-41.9s-14.6-68.3,25-113.8
							c39.6-45.5,93.2-58.4,154.6-78.8c61.4-20.4,99.7-29.7,138.5-29.7h0.2c38.9,0,126.9,9.3,169.5,75.7
							c48.7,75.9,34.6,159.6,34.3,247.7c-0.1,24.4,0.9,49.2,4.6,74.3c0,0,0.7,14.2,21.5,17.7c2.8,0.5,6.1,0.7,9.7,0.7c0,0,0,0,0,0
							c17.3,0,35-9.7,55-24c13-9.3,26.9-20.5,42.4-32.2c10.6-8.1,22-16.5,34.3-24.7c10-6.7,20.6-13.3,31.8-19.5
							c15.9-8.8,33.2-16.9,52.1-23.7c11.3-4,23.1-7.6,35.6-10.6c7-1.6,14.2-3.1,21.6-4.3c12.6-2.1,25.7-3.6,39.6-4.3
							c6.6-0.4,13.4-0.5,20.3-0.5h0.4c9.2,0,19.2,0.6,29.8,1.7c12.2,1.3,25.2,3.5,38.8,6.6c7,1.6,14.1,3.4,21.3,5.5
							c11.8,3.5,23.9,7.6,36.1,12.7c18,7.4,36.1,16.5,54,27.6c10.3,6.4,20.6,13.6,30.6,21.5c3.3,2.6,6.5,5.2,9.8,8
							c9.4,7.9,18.5,16.6,27.3,26c0.8,0.9,1.6,1.7,2.4,2.6c17.2,18.7,33.6,36.3,49.7,52.4c8.9,8.9,17.6,17.3,26.4,25.2
							c8.2,7.4,16.3,14.3,24.5,20.7c11.2,8.8,22.4,16.6,33.9,23.3c1.4,0.8,2.8,1.6,4.2,2.4c12.5,7,25.3,12.7,38.7,17
							c17.8,5.7,36.5,8.7,56.7,8.8h0.2c5.8,0,11.6-0.2,17.2-0.7c12-1,23.6-3.2,34.8-6.3c8.3-2.3,16.4-5.2,24.4-8.7
							c10.1-4.4,20-9.7,29.5-15.9c9.2-5.9,18.1-12.6,26.8-20c7.7-6.5,15.2-13.6,22.6-21.2c6.8-7,13.4-14.4,20-22.2
							c6.9-8.3,13.7-17,20.5-26.1c0.9-1.2,1.7-2.4,2.6-3.5c5.8-8,11.5-16.3,17.2-24.8c1-1.5,1.9-2.9,2.9-4.4
							c2.9-4.5,5.7-8.7,8.4-12.9c19.3-29.3,34.3-51.1,47.8-68.3c2.9-3.7,5.7-7.2,8.5-10.5c8.3-9.8,16.3-18.1,24.7-25.5
							c3-2.6,6-5.1,9.1-7.6c8.8-6.9,18.2-13.3,29-20c1.8-1.1,3.5-2.2,5.4-3.3C1825.8,311,1824,312.8,1821,316.4z M866.8,336.7
							c-14.3,4.9-28.4,10.7-42.3,17.4c-8.9,4.3-17.5,8.8-25.6,13.5c5.6,10.7,13.2,19.9,21.7,26.4c15.9-8.8,33.2-16.9,52.1-23.7
							C873.4,359.7,871.3,347.9,866.8,336.7z M990.2,316.9h-0.4c-11.8,0-23.4,0.5-34.9,1.5c2.1,13,7.4,24.5,14.5,32.8
							c6.6-0.4,13.4-0.5,20.3-0.5h0.4c9.2,0,19.2,0.6,29.8,1.7c7.3-7.9,12.8-19.2,15.3-32C1019.9,318,1004.7,316.9,990.2,316.9z
							 M1121.9,343c-0.5-0.2-1-0.4-1.5-0.6c-4.1,11.7-5.5,23.6-4,34.6c18,7.4,36.1,16.5,54,27.6c8.9-5.6,17.2-14.3,23.4-25.1
							C1171.4,365.2,1147.4,352.9,1121.9,343z M1265.2,439.9c-2.8-3-5.6-6-8.5-8.9c-4.3,4.3-8.2,9.3-11.6,14.8
							c-2.9,4.7-5.3,9.5-7.1,14.4c0.8,0.9,1.6,1.7,2.4,2.6c17.2,18.7,33.6,36.3,49.7,52.4c9.2-5.6,17.5-13.7,24-23.6
							C1298.7,476.1,1282.6,458.8,1265.2,439.9z M1375.4,544.8c0,0.1-0.1,0.1-0.1,0.2c-5.1,8.1-7.5,17.5-6.7,25.7
							c0.3,3.6,1.6,9.9,6.4,13.8c1.4,0.8,2.8,1.6,4.2,2.4c10.4,3.7,25.3-4,34.1-18.3c0.4-0.6,0.7-1.2,1.1-1.8
							C1401.2,561.2,1388.3,553.8,1375.4,544.8z M1548.4,566.4c-0.7-1.5-1.5-2.9-2.3-4.2c-13.5,6.8-27.2,11.4-41.4,14.1
							c0.8,3.2,1.9,6.4,3.4,9.5c4.5,9.3,11.5,16.4,18.7,19.9c8.3-2.3,16.4-5.2,24.4-8.7c0.6-1.6,1-3.1,1.2-4.3
							C1554,584.6,1552.5,575,1548.4,566.4z M1641.1,496.7c-2.9-3.8-6.2-7-9.7-9.6c-9.6,12.1-19.2,23-28.7,32.6
							c0.8,1.4,1.7,2.7,2.7,4c5.8,7.6,13.6,13.3,21.5,15.5c0.9,0.2,1.9,0.5,3.1,0.7c6.8-7,13.4-14.4,20-22.2
							C1649.1,510.8,1646.1,503.3,1641.1,496.7z M1793.8,322.2c-0.5-7.8-4.3-16.1-10.4-22.7c-0.3-0.4-0.6-0.7-1-1
							c-1.6,1.2-3.2,2.4-4.7,3.7c-10.5,7.8-20,15.9-29.3,25.3c0.6,0.7,1.2,1.5,1.8,2.2c6.1,6.7,13.9,11.2,21.6,12.5
							c2.5,0.4,6.6,0.7,10.6-0.6c3-2.6,6-5.1,9.1-7.6C1793.8,329.8,1794,325.1,1793.8,322.2z M866.8,336.7
							c-14.3,4.9-28.4,10.7-42.3,17.4c-8.9,4.3-17.5,8.8-25.6,13.5c5.6,10.7,13.2,19.9,21.7,26.4c15.9-8.8,33.2-16.9,52.1-23.7
							C873.4,359.7,871.3,347.9,866.8,336.7z M990.2,316.9h-0.4c-11.8,0-23.4,0.5-34.9,1.5c2.1,13,7.4,24.5,14.5,32.8
							c6.6-0.4,13.4-0.5,20.3-0.5h0.4c9.2,0,19.2,0.6,29.8,1.7c7.3-7.9,12.8-19.2,15.3-32C1019.9,318,1004.7,316.9,990.2,316.9z
							 M1121.9,343c-0.5-0.2-1-0.4-1.5-0.6c-4.1,11.7-5.5,23.6-4,34.6c18,7.4,36.1,16.5,54,27.6c8.9-5.6,17.2-14.3,23.4-25.1
							C1171.4,365.2,1147.4,352.9,1121.9,343z M1265.2,439.9c-2.8-3-5.6-6-8.5-8.9c-4.3,4.3-8.2,9.3-11.6,14.8
							c-2.9,4.7-5.3,9.5-7.1,14.4c0.8,0.9,1.6,1.7,2.4,2.6c17.2,18.7,33.6,36.3,49.7,52.4c9.2-5.6,17.5-13.7,24-23.6
							C1298.7,476.1,1282.6,458.8,1265.2,439.9z M1375.4,544.8c0,0.1-0.1,0.1-0.1,0.2c-5.1,8.1-7.5,17.5-6.7,25.7
							c0.3,3.6,1.6,9.9,6.4,13.8c1.4,0.8,2.8,1.6,4.2,2.4c10.4,3.7,25.3-4,34.1-18.3c0.4-0.6,0.7-1.2,1.1-1.8
							C1401.2,561.2,1388.3,553.8,1375.4,544.8z M1548.4,566.4c-0.7-1.5-1.5-2.9-2.3-4.2c-13.5,6.8-27.2,11.4-41.4,14.1
							c0.8,3.2,1.9,6.4,3.4,9.5c4.5,9.3,11.5,16.4,18.7,19.9c8.3-2.3,16.4-5.2,24.4-8.7c0.6-1.6,1-3.1,1.2-4.3
							C1554,584.6,1552.5,575,1548.4,566.4z M1641.1,496.7c-2.9-3.8-6.2-7-9.7-9.6c-9.6,12.1-19.2,23-28.7,32.6
							c0.8,1.4,1.7,2.7,2.7,4c5.8,7.6,13.6,13.3,21.5,15.5c0.9,0.2,1.9,0.5,3.1,0.7c6.8-7,13.4-14.4,20-22.2
							C1649.1,510.8,1646.1,503.3,1641.1,496.7z M1793.8,322.2c-0.5-7.8-4.3-16.1-10.4-22.7c-0.3-0.4-0.6-0.7-1-1
							c-1.6,1.2-3.2,2.4-4.7,3.7c-10.5,7.8-20,15.9-29.3,25.3c0.6,0.7,1.2,1.5,1.8,2.2c6.1,6.7,13.9,11.2,21.6,12.5
							c2.5,0.4,6.6,0.7,10.6-0.6c3-2.6,6-5.1,9.1-7.6C1793.8,329.8,1794,325.1,1793.8,322.2z M866.8,336.7
							c-14.3,4.9-28.4,10.7-42.3,17.4c-8.9,4.3-17.5,8.8-25.6,13.5c5.6,10.7,13.2,19.9,21.7,26.4c15.9-8.8,33.2-16.9,52.1-23.7
							C873.4,359.7,871.3,347.9,866.8,336.7z M990.2,316.9h-0.4c-11.8,0-23.4,0.5-34.9,1.5c2.1,13,7.4,24.5,14.5,32.8
							c6.6-0.4,13.4-0.5,20.3-0.5h0.4c9.2,0,19.2,0.6,29.8,1.7c7.3-7.9,12.8-19.2,15.3-32C1019.9,318,1004.7,316.9,990.2,316.9z
							 M1121.9,343c-0.5-0.2-1-0.4-1.5-0.6c-4.1,11.7-5.5,23.6-4,34.6c18,7.4,36.1,16.5,54,27.6c8.9-5.6,17.2-14.3,23.4-25.1
							C1171.4,365.2,1147.4,352.9,1121.9,343z M1265.2,439.9c-2.8-3-5.6-6-8.5-8.9c-4.3,4.3-8.2,9.3-11.6,14.8
							c-2.9,4.7-5.3,9.5-7.1,14.4c0.8,0.9,1.6,1.7,2.4,2.6c17.2,18.7,33.6,36.3,49.7,52.4c9.2-5.6,17.5-13.7,24-23.6
							C1298.7,476.1,1282.6,458.8,1265.2,439.9z M1375.4,544.8c0,0.1-0.1,0.1-0.1,0.2c-5.1,8.1-7.5,17.5-6.7,25.7
							c0.3,3.6,1.6,9.9,6.4,13.8c1.4,0.8,2.8,1.6,4.2,2.4c10.4,3.7,25.3-4,34.1-18.3c0.4-0.6,0.7-1.2,1.1-1.8
							C1401.2,561.2,1388.3,553.8,1375.4,544.8z M1548.4,566.4c-0.7-1.5-1.5-2.9-2.3-4.2c-13.5,6.8-27.2,11.4-41.4,14.1
							c0.8,3.2,1.9,6.4,3.4,9.5c4.5,9.3,11.5,16.4,18.7,19.9c8.3-2.3,16.4-5.2,24.4-8.7c0.6-1.6,1-3.1,1.2-4.3
							C1554,584.6,1552.5,575,1548.4,566.4z M1641.1,496.7c-2.9-3.8-6.2-7-9.7-9.6c-9.6,12.1-19.2,23-28.7,32.6
							c0.8,1.4,1.7,2.7,2.7,4c5.8,7.6,13.6,13.3,21.5,15.5c0.9,0.2,1.9,0.5,3.1,0.7c6.8-7,13.4-14.4,20-22.2
							C1649.1,510.8,1646.1,503.3,1641.1,496.7z M1793.8,322.2c-0.5-7.8-4.3-16.1-10.4-22.7c-0.3-0.4-0.6-0.7-1-1
							c-1.6,1.2-3.2,2.4-4.7,3.7c-10.5,7.8-20,15.9-29.3,25.3c0.6,0.7,1.2,1.5,1.8,2.2c6.1,6.7,13.9,11.2,21.6,12.5
							c2.5,0.4,6.6,0.7,10.6-0.6c3-2.6,6-5.1,9.1-7.6C1793.8,329.8,1794,325.1,1793.8,322.2z M866.8,336.7
							c-14.3,4.9-28.4,10.7-42.3,17.4c-8.9,4.3-17.5,8.8-25.6,13.5c5.6,10.7,13.2,19.9,21.7,26.4c15.9-8.8,33.2-16.9,52.1-23.7
							C873.4,359.7,871.3,347.9,866.8,336.7z M990.2,316.9h-0.4c-11.8,0-23.4,0.5-34.9,1.5c2.1,13,7.4,24.5,14.5,32.8
							c6.6-0.4,13.4-0.5,20.3-0.5h0.4c9.2,0,19.2,0.6,29.8,1.7c7.3-7.9,12.8-19.2,15.3-32C1019.9,318,1004.7,316.9,990.2,316.9z
							 M1121.9,343c-0.5-0.2-1-0.4-1.5-0.6c-4.1,11.7-5.5,23.6-4,34.6c18,7.4,36.1,16.5,54,27.6c8.9-5.6,17.2-14.3,23.4-25.1
							C1171.4,365.2,1147.4,352.9,1121.9,343z M1265.2,439.9c-2.8-3-5.6-6-8.5-8.9c-4.3,4.3-8.2,9.3-11.6,14.8
							c-2.9,4.7-5.3,9.5-7.1,14.4c0.8,0.9,1.6,1.7,2.4,2.6c17.2,18.7,33.6,36.3,49.7,52.4c9.2-5.6,17.5-13.7,24-23.6
							C1298.7,476.1,1282.6,458.8,1265.2,439.9z M1375.4,544.8c0,0.1-0.1,0.1-0.1,0.2c-5.1,8.1-7.5,17.5-6.7,25.7
							c0.3,3.6,1.6,9.9,6.4,13.8c1.4,0.8,2.8,1.6,4.2,2.4c10.4,3.7,25.3-4,34.1-18.3c0.4-0.6,0.7-1.2,1.1-1.8
							C1401.2,561.2,1388.3,553.8,1375.4,544.8z M1548.4,566.4c-0.7-1.5-1.5-2.9-2.3-4.2c-13.5,6.8-27.2,11.4-41.4,14.1
							c0.8,3.2,1.9,6.4,3.4,9.5c4.5,9.3,11.5,16.4,18.7,19.9c8.3-2.3,16.4-5.2,24.4-8.7c0.6-1.6,1-3.1,1.2-4.3
							C1554,584.6,1552.5,575,1548.4,566.4z M1641.1,496.7c-2.9-3.8-6.2-7-9.7-9.6c-9.6,12.1-19.2,23-28.7,32.6
							c0.8,1.4,1.7,2.7,2.7,4c5.8,7.6,13.6,13.3,21.5,15.5c0.9,0.2,1.9,0.5,3.1,0.7c6.8-7,13.4-14.4,20-22.2
							C1649.1,510.8,1646.1,503.3,1641.1,496.7z M1793.8,322.2c-0.5-7.8-4.3-16.1-10.4-22.7c-0.3-0.4-0.6-0.7-1-1
							c-1.6,1.2-3.2,2.4-4.7,3.7c-10.5,7.8-20,15.9-29.3,25.3c0.6,0.7,1.2,1.5,1.8,2.2c6.1,6.7,13.9,11.2,21.6,12.5
							c2.5,0.4,6.6,0.7,10.6-0.6c3-2.6,6-5.1,9.1-7.6C1793.8,329.8,1794,325.1,1793.8,322.2z M866.8,336.7
							c-14.3,4.9-28.4,10.7-42.3,17.4c-8.9,4.3-17.5,8.8-25.6,13.5c5.6,10.7,13.2,19.9,21.7,26.4c15.9-8.8,33.2-16.9,52.1-23.7
							C873.4,359.7,871.3,347.9,866.8,336.7z M990.2,316.9h-0.4c-11.8,0-23.4,0.5-34.9,1.5c2.1,13,7.4,24.5,14.5,32.8
							c6.6-0.4,13.4-0.5,20.3-0.5h0.4c9.2,0,19.2,0.6,29.8,1.7c7.3-7.9,12.8-19.2,15.3-32C1019.9,318,1004.7,316.9,990.2,316.9z
							 M1121.9,343c-0.5-0.2-1-0.4-1.5-0.6c-4.1,11.7-5.5,23.6-4,34.6c18,7.4,36.1,16.5,54,27.6c8.9-5.6,17.2-14.3,23.4-25.1
							C1171.4,365.2,1147.4,352.9,1121.9,343z M1265.2,439.9c-2.8-3-5.6-6-8.5-8.9c-4.3,4.3-8.2,9.3-11.6,14.8
							c-2.9,4.7-5.3,9.5-7.1,14.4c0.8,0.9,1.6,1.7,2.4,2.6c17.2,18.7,33.6,36.3,49.7,52.4c9.2-5.6,17.5-13.7,24-23.6
							C1298.7,476.1,1282.6,458.8,1265.2,439.9z M1375.4,544.8c0,0.1-0.1,0.1-0.1,0.2c-5.1,8.1-7.5,17.5-6.7,25.7
							c0.3,3.6,1.6,9.9,6.4,13.8c1.4,0.8,2.8,1.6,4.2,2.4c10.4,3.7,25.3-4,34.1-18.3c0.4-0.6,0.7-1.2,1.1-1.8
							C1401.2,561.2,1388.3,553.8,1375.4,544.8z M1548.4,566.4c-0.7-1.5-1.5-2.9-2.3-4.2c-13.5,6.8-27.2,11.4-41.4,14.1
							c0.8,3.2,1.9,6.4,3.4,9.5c4.5,9.3,11.5,16.4,18.7,19.9c8.3-2.3,16.4-5.2,24.4-8.7c0.6-1.6,1-3.1,1.2-4.3
							C1554,584.6,1552.5,575,1548.4,566.4z M1641.1,496.7c-2.9-3.8-6.2-7-9.7-9.6c-9.6,12.1-19.2,23-28.7,32.6
							c0.8,1.4,1.7,2.7,2.7,4c5.8,7.6,13.6,13.3,21.5,15.5c0.9,0.2,1.9,0.5,3.1,0.7c6.8-7,13.4-14.4,20-22.2
							C1649.1,510.8,1646.1,503.3,1641.1,496.7z M1793.8,322.2c-0.5-7.8-4.3-16.1-10.4-22.7c-0.3-0.4-0.6-0.7-1-1
							c-1.6,1.2-3.2,2.4-4.7,3.7c-10.5,7.8-20,15.9-29.3,25.3c0.6,0.7,1.2,1.5,1.8,2.2c6.1,6.7,13.9,11.2,21.6,12.5
							c2.5,0.4,6.6,0.7,10.6-0.6c3-2.6,6-5.1,9.1-7.6C1793.8,329.8,1794,325.1,1793.8,322.2z M866.8,336.7
							c-14.3,4.9-28.4,10.7-42.3,17.4c-8.9,4.3-17.5,8.8-25.6,13.5c5.6,10.7,13.2,19.9,21.7,26.4c15.9-8.8,33.2-16.9,52.1-23.7
							C873.4,359.7,871.3,347.9,866.8,336.7z M990.2,316.9h-0.4c-11.8,0-23.4,0.5-34.9,1.5c2.1,13,7.4,24.5,14.5,32.8
							c6.6-0.4,13.4-0.5,20.3-0.5h0.4c9.2,0,19.2,0.6,29.8,1.7c7.3-7.9,12.8-19.2,15.3-32C1019.9,318,1004.7,316.9,990.2,316.9z
							 M1121.9,343c-0.5-0.2-1-0.4-1.5-0.6c-4.1,11.7-5.5,23.6-4,34.6c18,7.4,36.1,16.5,54,27.6c8.9-5.6,17.2-14.3,23.4-25.1
							C1171.4,365.2,1147.4,352.9,1121.9,343z M1265.2,439.9c-2.8-3-5.6-6-8.5-8.9c-4.3,4.3-8.2,9.3-11.6,14.8
							c-2.9,4.7-5.3,9.5-7.1,14.4c0.8,0.9,1.6,1.7,2.4,2.6c17.2,18.7,33.6,36.3,49.7,52.4c9.2-5.6,17.5-13.7,24-23.6
							C1298.7,476.1,1282.6,458.8,1265.2,439.9z M1375.4,544.8c0,0.1-0.1,0.1-0.1,0.2c-5.1,8.1-7.5,17.5-6.7,25.7
							c0.3,3.6,1.6,9.9,6.4,13.8c1.4,0.8,2.8,1.6,4.2,2.4c10.4,3.7,25.3-4,34.1-18.3c0.4-0.6,0.7-1.2,1.1-1.8
							C1401.2,561.2,1388.3,553.8,1375.4,544.8z M1548.4,566.4c-0.7-1.5-1.5-2.9-2.3-4.2c-13.5,6.8-27.2,11.4-41.4,14.1
							c0.8,3.2,1.9,6.4,3.4,9.5c4.5,9.3,11.5,16.4,18.7,19.9c8.3-2.3,16.4-5.2,24.4-8.7c0.6-1.6,1-3.1,1.2-4.3
							C1554,584.6,1552.5,575,1548.4,566.4z M1641.1,496.7c-2.9-3.8-6.2-7-9.7-9.6c-9.6,12.1-19.2,23-28.7,32.6
							c0.8,1.4,1.7,2.7,2.7,4c5.8,7.6,13.6,13.3,21.5,15.5c0.9,0.2,1.9,0.5,3.1,0.7c6.8-7,13.4-14.4,20-22.2
							C1649.1,510.8,1646.1,503.3,1641.1,496.7z M866.8,336.7c-14.3,4.9-28.4,10.7-42.3,17.4c-8.9,4.3-17.5,8.8-25.6,13.5
							c5.6,10.7,13.2,19.9,21.7,26.4c15.9-8.8,33.2-16.9,52.1-23.7C873.4,359.7,871.3,347.9,866.8,336.7z M990.2,316.9h-0.4
							c-11.8,0-23.4,0.5-34.9,1.5c2.1,13,7.4,24.5,14.5,32.8c6.6-0.4,13.4-0.5,20.3-0.5h0.4c9.2,0,19.2,0.6,29.8,1.7
							c7.3-7.9,12.8-19.2,15.3-32C1019.9,318,1004.7,316.9,990.2,316.9z M1121.9,343c-0.5-0.2-1-0.4-1.5-0.6
							c-4.1,11.7-5.5,23.6-4,34.6c18,7.4,36.1,16.5,54,27.6c8.9-5.6,17.2-14.3,23.4-25.1C1171.4,365.2,1147.4,352.9,1121.9,343z
							 M1265.2,439.9c-2.8-3-5.6-6-8.5-8.9c-4.3,4.3-8.2,9.3-11.6,14.8c-2.9,4.7-5.3,9.5-7.1,14.4c0.8,0.9,1.6,1.7,2.4,2.6
							c17.2,18.7,33.6,36.3,49.7,52.4c9.2-5.6,17.5-13.7,24-23.6C1298.7,476.1,1282.6,458.8,1265.2,439.9z M1375.4,544.8
							c0,0.1-0.1,0.1-0.1,0.2c-5.1,8.1-7.5,17.5-6.7,25.7c0.3,3.6,1.6,9.9,6.4,13.8c1.4,0.8,2.8,1.6,4.2,2.4
							c10.4,3.7,25.3-4,34.1-18.3c0.4-0.6,0.7-1.2,1.1-1.8C1401.2,561.2,1388.3,553.8,1375.4,544.8z M1548.4,566.4
							c-0.7-1.5-1.5-2.9-2.3-4.2c-13.5,6.8-27.2,11.4-41.4,14.1c0.8,3.2,1.9,6.4,3.4,9.5c4.5,9.3,11.5,16.4,18.7,19.9
							c8.3-2.3,16.4-5.2,24.4-8.7c0.6-1.6,1-3.1,1.2-4.3C1554,584.6,1552.5,575,1548.4,566.4z M866.8,336.7
							c-14.3,4.9-28.4,10.7-42.3,17.4c-8.9,4.3-17.5,8.8-25.6,13.5c5.6,10.7,13.2,19.9,21.7,26.4c15.9-8.8,33.2-16.9,52.1-23.7
							C873.4,359.7,871.3,347.9,866.8,336.7z M990.2,316.9h-0.4c-11.8,0-23.4,0.5-34.9,1.5c2.1,13,7.4,24.5,14.5,32.8
							c6.6-0.4,13.4-0.5,20.3-0.5h0.4c9.2,0,19.2,0.6,29.8,1.7c7.3-7.9,12.8-19.2,15.3-32C1019.9,318,1004.7,316.9,990.2,316.9z
							 M1121.9,343c-0.5-0.2-1-0.4-1.5-0.6c-4.1,11.7-5.5,23.6-4,34.6c18,7.4,36.1,16.5,54,27.6c8.9-5.6,17.2-14.3,23.4-25.1
							C1171.4,365.2,1147.4,352.9,1121.9,343z M1265.2,439.9c-2.8-3-5.6-6-8.5-8.9c-4.3,4.3-8.2,9.3-11.6,14.8
							c-2.9,4.7-5.3,9.5-7.1,14.4c0.8,0.9,1.6,1.7,2.4,2.6c17.2,18.7,33.6,36.3,49.7,52.4c9.2-5.6,17.5-13.7,24-23.6
							C1298.7,476.1,1282.6,458.8,1265.2,439.9z M866.8,336.7c-14.3,4.9-28.4,10.7-42.3,17.4c-8.9,4.3-17.5,8.8-25.6,13.5
							c5.6,10.7,13.2,19.9,21.7,26.4c15.9-8.8,33.2-16.9,52.1-23.7C873.4,359.7,871.3,347.9,866.8,336.7z M990.2,316.9h-0.4
							c-11.8,0-23.4,0.5-34.9,1.5c2.1,13,7.4,24.5,14.5,32.8c6.6-0.4,13.4-0.5,20.3-0.5h0.4c9.2,0,19.2,0.6,29.8,1.7
							c7.3-7.9,12.8-19.2,15.3-32C1019.9,318,1004.7,316.9,990.2,316.9z"></path>
						<g>
							<g>
								<path d="M995.3,210.4c-42.5,0-77.1,42.5-77.1,94.8c0,6.1,0.5,12,1.4,17.8c1.8,11.7,5.4,22.7,10.4,32.4
									c12.6-2.1,25.7-3.6,39.6-4.3c-7.1-8.2-12.4-19.8-14.5-32.8c-0.7-4.2-1.1-8.6-1.1-13.1c0-32.1,19-59.2,41.4-59.2
									c22.4,0,41.4,27.1,41.4,59.2c0,5.2-0.5,10.2-1.4,15c-2.4,12.8-7.9,24.1-15.3,32c12.2,1.3,25.2,3.5,38.8,6.6
									c5.3-9.5,9.3-20.3,11.5-31.9c1.3-7,2-14.2,2-21.7C1072.4,253,1037.8,210.4,995.3,210.4z"></path>
								<path d="M1036.7,305.2c0,5.2-0.5,10.2-1.4,15c-15.4-2.2-30.6-3.3-45.1-3.4h-0.4c-11.8,0-23.4,0.5-34.9,1.5
									c-0.7-4.2-1.1-8.6-1.1-13.1c0-32.1,19-59.2,41.4-59.2C1017.7,246.1,1036.7,273.2,1036.7,305.2z" class="st2"></path>
							</g>
							<g>
								<path d="M1196.5,265.2c-19.9-8.2-42.4-5.8-63.3,6.5c-19.3,11.4-35,30.3-44.4,53.1c-0.9,2.1-1.7,4.2-2.4,6.4
									c-3.8,11-5.9,22.2-6.3,33.2c11.8,3.5,23.9,7.6,36.1,12.7c-1.5-11-0.1-22.9,4-34.6c0.5-1.4,1-2.8,1.6-4.1
									c6.4-15.7,16.9-28.5,29.5-35.9c7-4.1,14.1-6.2,20.7-6.2c3.8,0,7.5,0.7,10.9,2.1c20.8,8.5,27.9,41.2,15.6,71.4
									c-1.4,3.5-3.1,6.8-4.9,10c-6.2,10.8-14.5,19.5-23.4,25.1c10.3,6.4,20.6,13.6,30.6,21.5c8.3-7.1,15.7-15.7,21.9-25.7
									c3.3-5.4,6.3-11.2,8.8-17.4C1251.6,334.2,1235.8,281.3,1196.5,265.2z"></path>
								<path d="M1198.5,369.6c-1.4,3.5-3.1,6.8-4.9,10c-22.3-14.4-46.2-26.7-71.8-36.6c-0.5-0.2-1-0.4-1.5-0.6
									c0.5-1.4,1-2.8,1.6-4.1c6.4-15.7,16.9-28.5,29.5-35.9c7-4.1,14.1-6.2,20.7-6.2c3.8,0,7.5,0.7,10.9,2.1
									C1203.7,306.7,1210.9,339.4,1198.5,369.6z" class="st2"></path>
							</g>
							<g>
								<path d="M1362.7,441.1c-2.3-24.1-13.6-43.6-31.9-55c-18.3-11.3-40.8-12.8-63.4-4.1c-13.5,5.2-26.2,13.8-36.9,24.9
									c-5.9,6-11.2,12.8-15.7,20.2c-1.5,2.4-2.8,4.8-4.1,7.2c9.4,7.9,18.5,16.6,27.3,26c1.9-4.9,4.2-9.7,7.1-14.4
									c3.4-5.5,7.3-10.4,11.6-14.8c7-7.1,15-12.5,23.5-15.7c5.5-2.1,10.9-3.2,15.9-3.2c5.9,0,11.3,1.4,16,4.3
									c8.6,5.3,14,15.3,15.2,28c0.2,1.8,0.3,3.7,0.3,5.6c0,13-4.2,26.8-12,39.4c-0.4,0.7-0.9,1.4-1.4,2.1
									c-6.6,10-14.9,18.1-24,23.6c8.9,8.9,17.6,17.3,26.4,25.2c2.1-1.5,4-3.1,6-4.8c6.5-5.6,12.5-12,17.8-19.2
									c2-2.6,3.8-5.4,5.6-8.2C1358.9,487.2,1364.9,463.4,1362.7,441.1z"></path>
								<path d="M1327.5,450c0,13-4.2,26.8-12,39.4c-0.4,0.7-0.9,1.4-1.4,2.1c-15.4-15.5-31.6-32.7-49-51.6
									c-2.8-3-5.6-6-8.5-8.9c7-7.1,15-12.5,23.5-15.7c5.5-2.1,10.9-3.2,15.9-3.2c5.9,0,11.3,1.4,16,4.3c8.6,5.3,14,15.3,15.2,28
									C1327.4,446.3,1327.5,448.2,1327.5,450z" class="st2"></path>
							</g>
							<g>
								<path d="M1447.7,540.3c-1.5-15.5-9.1-28.5-20.9-35.9c-22.8-14.1-55.1-3.6-73.4,23.4c-0.6,0.8-1.1,1.7-1.7,2.6
									c-6,9.6-9.6,20.2-10.7,30.7c11.2,8.8,22.4,16.6,33.9,23.3c-4.7-3.9-6-10.1-6.4-13.8c-0.8-8.2,1.7-17.5,6.7-25.7
									c0-0.1,0.1-0.1,0.1-0.2c7.4-11.8,18.8-19,28.4-19c3,0,5.8,0.7,8.3,2.2c6,3.7,7.5,10.9,7.9,14.9c0.7,7.5-1.3,16.1-5.6,23.8
									c-0.4,0.6-0.7,1.2-1.1,1.8c-8.9,14.3-23.8,22-34.1,18.3c12.5,7,25.3,12.7,38.7,17c7.3-5.3,13.8-12.2,19.1-20.7
									c1.6-2.6,3-5.2,4.3-7.9C1446.4,564,1448.7,551.8,1447.7,540.3z"></path>
								<path d="M1414.4,566.7c-13.2-5.5-26.1-12.9-39-21.9c7.4-11.8,18.8-19,28.4-19c3,0,5.8,0.7,8.3,2.2
									c6,3.7,7.5,10.9,7.9,14.9C1420.7,550.4,1418.7,559,1414.4,566.7z" class="st2"></path>
							</g>
							<g>
								<path d="M1551.1,596.9c10.1-4.4,20-9.7,29.5-15.9c-0.6-9-3-18.1-7.2-26.7c-1.1-2.3-2.3-4.5-3.6-6.6
									c-6.7-11.2-16.1-20.1-26.8-25.6c-13.8-7.1-28.9-7.7-41.5-1.7c-19.9,9.5-29.2,33.6-24.7,58.4c1.1,6.3,3.2,12.6,6.1,18.8
									c2.5,5.2,5.5,9.9,8.9,14.2c12-1,23.6-3.2,34.8-6.3c-7.2-3.5-14.2-10.6-18.7-19.9c-1.5-3.1-2.6-6.3-3.4-9.5
									c-3.3-13.6,0.1-26.4,8.9-30.7c2.1-1,4.3-1.4,6.4-1.4c4.2,0,8,1.5,10.4,2.8c3.6,1.9,7.1,4.6,10.2,7.9c2,2.2,3.9,4.7,5.5,7.4
									c0.8,1.4,1.6,2.8,2.3,4.2c4.2,8.6,5.6,18.2,3.9,26.2C1552.1,593.8,1551.7,595.3,1551.1,596.9z"></path>
								<path d="M1546.1,562.1c-13.5,6.8-27.2,11.4-41.4,14.1c-3.3-13.6,0.1-26.4,8.9-30.7c2.1-1,4.3-1.4,6.4-1.4
									c4.2,0,8,1.5,10.4,2.8c3.6,1.9,7.1,4.6,10.2,7.9C1542.6,557,1544.5,559.4,1546.1,562.1z" class="st2"></path>
							</g>
							<g>
								<path d="M1663.2,480c-4.5-5.9-9.6-11-15.2-15c-19.8-14.6-44.7-16.9-61.9-3.9c-21.5,16.3-23.2,50.6-4.1,77.5
									c0.4,0.6,0.9,1.3,1.3,1.9c6.7,8.8,15,15.9,24.1,20.7c7.7-6.5,15.2-13.6,22.6-21.2c-1.1-0.2-2.2-0.5-3.1-0.7
									c-7.9-2.2-15.7-7.9-21.5-15.5c-1-1.3-1.9-2.7-2.7-4c-8.5-13.9-8.6-29.8,0.1-36.5c2.8-2.1,6.2-3.1,9.9-3.1
									c5.9,0,12.6,2.5,18.7,7c3.5,2.6,6.8,5.8,9.7,9.6c5,6.7,8,14.1,8.9,21c6.9-8.3,13.7-17,20.5-26.1
									C1668.4,487.5,1666,483.7,1663.2,480z"></path>
								<path d="M1631.4,487.1c-9.6,12.1-19.2,23-28.7,32.6c-8.5-13.9-8.6-29.8,0.1-36.5c2.8-2.1,6.2-3.1,9.9-3.1
									C1618.6,480.1,1625.3,482.6,1631.4,487.1z" class="st2"></path>
							</g>
							<g>
								<path d="M1736.4,357.1c-2.5-2.7-5.1-5.2-7.8-7.4c-21.9-17.7-51.2-19.5-69.4-3c-10.2,9.3-15.5,23.3-14.4,38.4
									c1,14.1,7.2,28.1,17.5,39.5c2.5,2.8,5.2,5.3,8,7.5c9.5,7.6,20.5,12.3,31.3,13.8c19.3-29.3,34.3-51.1,47.8-68.3
									C1746.4,370.3,1742.1,363.4,1736.4,357.1z M1720.8,414.4c-8.3,7.5-23.6,4.8-35.1-5.6c-1-0.9-2-1.9-2.9-2.9
									c-6-6.6-9.8-14.9-10.3-22.7c-0.3-3.9,0.1-11.1,5.4-16c3.2-2.9,7.4-4.3,12.1-4.3c7,0,14.9,3.1,21.7,8.7
									c1.5,1.2,2.9,2.6,4.3,4.1C1727.5,388.6,1729.7,406.3,1720.8,414.4z"></path>
								<path d="M1711.6,371.7c-8,10.9-16.5,23.1-25.9,37.1c-1-0.9-2-1.9-2.9-2.9c-6-6.6-9.8-14.9-10.3-22.7
									c-0.3-3.9,0.1-11.1,5.4-16c3.2-2.9,7.4-4.3,12.1-4.3C1696.9,363,1704.8,366,1711.6,371.7z" class="st2"></path>
							</g>
							<g>
								<path d="M1821.5,320.3c-0.1-1.3-0.2-2.7-0.4-4c-6.9,8.2-20.3,25.5-35.2,52.9c8-1.6,15.3-5.2,21.2-10.5
									C1817.2,349.4,1822.5,335.4,1821.5,320.3z M1820.7,314c-0.9-4.9-2.4-9.7-4.4-14.4c-2.6-5.9-6.2-11.6-10.5-16.7
									c-0.6-0.7-1.1-1.3-1.7-2c-10.3-11.4-23.7-18.9-37.7-21.2c-14.9-2.5-29.3,1.4-39.6,10.7c-10.2,9.3-15.5,23.3-14.4,38.4
									c1,14.1,7.2,28.1,17.5,39.4c0,0,0,0,0.1,0.1c7.9,8.7,17.6,15.2,28,18.7c8.3-9.8,16.3-18.1,24.7-25.5c-4,1.3-8.1,1-10.6,0.6
									c-7.7-1.3-15.6-5.8-21.6-12.5c-0.6-0.7-1.2-1.4-1.8-2.2c-5-6.2-8-13.6-8.5-20.6c-0.3-3.9,0.1-11.1,5.4-15.9
									c3.7-3.4,8.3-4.3,12.1-4.3c1.6,0,3.1,0.2,4.3,0.4c3.8,0.6,7.7,2.1,11.4,4.2c3.3,1.9,6.4,4.4,9.2,7.2c0.3,0.3,0.7,0.7,1,1
									c6,6.6,9.8,14.9,10.4,22.7c0.2,2.9,0,7.5-2.2,11.7C1800.4,327,1809.8,320.6,1820.7,314z"></path>
								<path d="M1782.5,298.5c-1.6,1.2-3.2,2.4-4.7,3.7c-10.5,7.8-20,15.9-29.3,25.3c-5-6.2-8-13.6-8.5-20.6
									c-0.3-3.9,0.1-11.1,5.4-15.9c3.7-3.4,8.3-4.3,12.1-4.3c1.6,0,3.1,0.2,4.3,0.4c3.8,0.6,7.7,2.1,11.4,4.2
									C1776.5,293.2,1779.7,295.7,1782.5,298.5z" class="st2"></path>
							</g>
							<g>
								<path d="M908.3,359.8c-0.7-10.9-3.1-22.1-7.1-33c-1.1-3.2-2.4-6.3-3.9-9.4c-22.3-48.3-68.9-72.6-106.1-55.4
									c-37.2,17.2-48.9,68.5-26.7,116.7c1.2,2.7,2.6,5.3,4,7.8c5.6,10.2,12.4,19.3,20.2,27c10-6.7,20.6-13.3,31.8-19.5
									c-8.5-6.5-16.1-15.7-21.7-26.4c-0.7-1.3-1.3-2.5-1.9-3.8c-13.4-29.1-9.2-60.9,9.2-69.4c3.2-1.5,6.6-2.2,10.2-2.2
									c8.6,0,18,4,26.6,11.1c8.6,7,16.5,17.1,22.1,29.1c0.7,1.4,1.3,2.9,1.8,4.3c4.5,11.2,6.5,23,5.9,33.7
									C884,366.3,895.8,362.8,908.3,359.8z"></path>
								<path d="M866.8,336.7c-14.3,4.9-28.4,10.7-42.3,17.4c-8.9,4.3-17.5,8.8-25.6,13.5c-0.7-1.3-1.3-2.5-1.9-3.8
									c-13.4-29.1-9.2-60.9,9.2-69.4c3.2-1.5,6.6-2.2,10.2-2.2c8.6,0,18,4,26.6,11.1c8.6,7,16.5,17.1,22.1,29.1
									C865.7,333.8,866.3,335.3,866.8,336.7z" class="st2"></path>
							</g>
							<g>
								<path d="M712.1,470.5c13-9.3,26.9-20.5,42.4-32.2c0.1-12.6-1.9-24.7-5.9-35.8c-0.2-0.5-0.4-1-0.6-1.4
									c-8.2-21.3-23.8-36.5-42.9-41.9c-16.1-4.5-33.6-1.8-49.4,7.4c-3.5,2-6.9,4.4-10.3,7c-9.4,7.5-17.6,17.2-24.2,28.3
									c-0.1,24.4,0.9,49.2,4.6,74.3c0,0,0.7,14.2,21.5,17.7c-7.6-13-9.6-33.2-3.9-53.5c2.6-9.2,6.6-17.8,11.6-25.1
									c3.7-5.4,8-10.1,12.6-13.9c4.4-3.5,12.5-8.7,21.6-8.7c2,0,4.1,0.3,6.2,0.8c11.5,3.2,17.2,14.7,19.6,21.2
									c1.1,3,1.9,6.2,2.5,9.5c0.8,4.2,1.2,8.7,1.2,13.2c0,7.6-1.1,15.5-3.3,23.2C714.6,463.9,713.4,467.3,712.1,470.5z"></path>
								<path d="M717.6,424.1c-23,17.8-46.7,36-59.8,36.6c-1.7-15.1-2.5-30.4-2.7-45.6c3.7-5.4,8-10.1,12.6-13.9
									c4.4-3.5,12.5-8.7,21.6-8.7c2,0,4.1,0.3,6.2,0.8c11.5,3.2,17.2,14.7,19.6,21.2C716.2,417.6,717,420.8,717.6,424.1z" class="st2"></path>
							</g>
						</g>
					</g>
				</g>
				<g>
					<path d="M1797.8,978.9H250.5c-7.7,0-13.9-6.2-13.9-13.9s6.2-13.9,13.9-13.9h1547.3c7.7,0,13.9,6.2,13.9,13.9
						S1805.5,978.9,1797.8,978.9z"></path>
				</g>
				<g>
					<path d="M1493.9,289.7c0.2-2.7,1.2-5.3,3.1-7.6c3.4-4.2,8.9-5.9,13.9-4.7c2,0.5,4,1.4,5.7,2.8c3.8,3.1,7.6,6.3,11.3,9.4
						c57.6,48.3,104.8,96.6,141.3,144.3c7.5,9.8,14.5,19.6,21.1,29.3c-5.7,8.6-11.4,16.9-17.2,24.8c-6.3-9.8-13.1-19.6-20.4-29.5
						c-36.9-50-86.4-101.1-147.9-152.1c-1.9-1.6-3.8-3.2-5.7-4.7C1495.3,298.6,1493.5,294.1,1493.9,289.7z"></path>
					<path d="M1746,744.7c-23.5,65.7-69.9,106.8-104.7,129.6c-44.5,29.3-97,46-144.1,46c-112.7,0-141.5-16.6-164.6-29.9
						c-2.3-1.3-4.5-2.6-6.7-3.8c-9.6-5.2-18.7-8.4-37.8-8.4c-21.1,0-29,10.9-35.6,30.6c-1.6,4.7-3,9.8-4.6,15.5
						c-1.9,6.8-3.9,14.1-6.6,21c-0.8,1.9-1.5,3.9-2.4,5.7c-7.1,15.3-18.4,27.7-40.3,27.7c-28.2,0-41.2-14.1-49.7-27.7
						c-1.2-2-2.4-3.9-3.4-5.8c-0.6-1.1-1.2-2.2-1.8-3.2c-7.7-14.1-11.4-19.8-24.7-19.8c-12.4,0-17.6,5.2-28.4,16.9
						c-1.7,1.8-3.4,3.7-5.3,5.6c-1.9,2.1-4,4.1-6.3,6.2c-5.7,5.4-12.6,10.7-21.3,15.2c-0.7,0.4-1.4,0.7-2.2,1.1
						c-13.4,6.5-31.1,11.1-55.6,11.4c-0.3,0-0.6,0-0.9,0c-0.6,0-1.1,0-1.7,0H850.1c-4.5,0-8.7-0.1-12.7-0.2
						c-54.2-1.3-68.2-11.5-80.8-27.6c-0.6-0.8-1.3-1.6-1.9-2.4c-1-1.3-1.9-2.5-2.9-3.7c-4.8-6-10.8-11.8-24.6-17.6
						c-14.3-6-29.2-0.3-44.7,8c-3.7,2-7.5,4.1-11.2,6.3c-5.8,3.3-11.8,6.7-17.7,9.5c-1.2,0.6-2.5,1.2-3.8,1.7
						c-11.2,4.8-22.6,7.2-33.8,3.2c-3.3-1.1-6.3-2.8-9.1-4.9c-7.6-5.5-13.7-14.5-18.6-27.1c-6.9-17.6-12.2-26.1-17.9-28.4
						c-6.6-2.6-19.4-0.4-37.1,2.6c-23.8,4.1-59.8,10.3-112.6,10.3c-110.1,0-168.8-49.7-198.7-91.3c-16.2-22.6-25.8-45.1-31.3-62.2
						c-2.5-7.7-4.2-14.3-5.3-19.3c-1.4-6.1-1.9-9.9-1.9-10.4c-0.1-0.9-0.1-1.8-0.1-2.7c0.4-6.5,5.4-12,12.1-12.8
						c3.9-0.5,7.7,0.7,10.5,3c2.7,2.1,4.5,5.3,5,9c0,0.2,0.2,1.1,0.5,2.8c0.7,3.6,2.1,10.5,4.9,19.4c4.8,15.4,13.5,36.8,28.9,57.9
						c38,52.3,97,78.8,175.5,78.8c50.4,0,83.6-5.7,107.9-9.8c45.9-7.9,65.3-9,85.5,43c3.5,8.9,7.5,14.6,11.2,15.9
						c5,1.8,14.1-2.4,23.6-7.5c2.9-1.6,5.8-3.2,8.7-4.9c7.7-4.4,16.1-9.2,25-13c16.9-7.3,35.7-11.2,55.5-2.8
						c23.5,10,32.3,21.7,38.8,30.2c3.9,5.2,7.3,9.7,15.7,13c9.7,3.8,26.1,6.1,57.6,6.1h147.4c17.1,0,29.7-2.3,39.6-5.9
						c7.1-2.6,12.7-5.9,17.5-9.6c6.1-4.6,10.9-9.9,15.7-15.1c4.6-5,9.4-10.3,15.2-14.7c8.4-6.4,18.8-11.2,33.6-11.2
						c30.2,0,41.1,19.7,49,34.2c3.9,7.1,7,12.7,11.5,16.6c4.4,3.7,10.1,5.8,19,5.8c5.2,0,8.7-1.6,11.8-5.8
						c3.7-5.1,6.7-13.9,10.7-28.4c5-18.2,11.9-42.8,31.4-56.4c8.9-6.1,20.4-10,35.5-10c0.7,0,1.3,0,2,0c11.6,0.1,20.6,1.3,28.1,3.2
						c11.7,3,19.9,7.7,28.3,12.6c5.9,3.4,12.3,7.1,21,10.6c20.9,8.4,55.4,15.6,129.7,15.6c81.8,0,187.4-58.8,222.6-157.2
						c15.4-42.9,16.3-89.1,3.6-137.5c-3.9-14.7-9-29.5-15.4-44.6c5.4-11.4,10.4-22.7,15.1-33.9c3.1,6.3,6,12.5,8.8,18.8
						c3.4,7.9,6.6,15.7,9.4,23.5C1764.7,626.4,1766.3,687.9,1746,744.7z"></path>
				</g>
				<g>
					<path d="M159.5,754.4l75.7-32l12.7-7.3l-16.9-39c0,0,1.1-26,1.4-26c0.4,0,7.5-17,7.5-17l-39.7-85.9l-84.3,39.8
						l-48,18.9l33.8,94.1l31.3-2.6L159.5,754.4z" class="st3"></path>
					<g>
						<path d="M257.9,715.7l-21.6-50.9l14.1-6c2.9-1.2,5.2-3.6,6.4-6.5c1.2-2.9,1.1-6.2-0.1-9.1l-43.1-101.5
							c-2.6-6-9.6-8.9-15.6-6.3l-13.9,5.9l-31.3-73.7c-2.6-6-9.5-8.9-15.6-6.3c-6,2.6-8.9,9.6-6.3,15.6l31.3,73.7l-59.3,25.2
							L70.6,500c-2.6-6-9.6-8.9-15.6-6.3c-6,2.6-8.9,9.6-6.3,15.6L81,585.1l-20,8.5c-2.9,1.2-5.2,3.6-6.4,6.5
							c-1.2,2.9-1.1,6.2,0.1,9.1l43.1,101.5c1.9,4.5,6.3,7.2,10.9,7.2c1.5,0,3.1-0.3,4.6-0.9l14.1-6l21.6,50.9c1,2.4,3,4.3,5.4,5.3
							c1.2,0.5,2.4,0.7,3.7,0.7c1.3,0,2.6-0.3,3.9-0.8l28.5-12.1l25.7-10.9l36.3-15.4c2.4-1,4.3-3,5.3-5.4
							C259,720.8,259,718.1,257.9,715.7z M115,690.4l-33.8-79.6l115.1-48.9l33.8,79.6L115,690.4z M150.8,715.1l-5.1-11.9l72.3-30.7
							l4.9,11.5L150.8,715.1z M211.4,724.7l-26.1,11.1l-21.8,9.3l-5-11.7l24.8-10.7l22.6-9.8l24.7-10.7l5.2,12.1L211.4,724.7z"></path>
						<path d="M194.9,630.3l-8.1-19c-0.5-1.2-1.5-2.2-2.7-2.7c-1.2-0.5-2.6-0.5-3.8,0l-61.3,26c-2.5,1.1-3.7,4-2.6,6.5l8.1,19
							c0.5,1.2,1.5,2.2,2.7,2.7c0.6,0.2,1.2,0.4,1.9,0.4c0.7,0,1.3-0.1,1.9-0.4l61.3-26C194.8,635.7,196,632.8,194.9,630.3z
							 M131.7,651.8l-4.2-9.9l52.1-22.2l4.2,9.9L131.7,651.8z"></path>
					</g>
				</g>
				<g>
					<path d="M1465,319.3l66.7-48.1l10.8-10l-25.2-34.2c0,0-4.8-25.5-4.4-25.6c0.3-0.1,3.5-18.3,3.5-18.3l-57.9-74.9
						l-73.3,57.7l-42.6,29.1l54,84.1l29.9-9.6L1465,319.3z" class="st3"></path>
					<g>
						<path d="M1552.3,259.6l-32.5-44.8l12.4-9c2.6-1.8,4.3-4.6,4.8-7.7c0.5-3.1-0.3-6.3-2.1-8.9l-64.7-89.2
							c-3.9-5.3-11.3-6.5-16.6-2.6l-12.2,8.8l-47-64.8c-3.9-5.3-11.3-6.5-16.6-2.6c-5.3,3.8-6.5,11.3-2.7,16.6l47,64.8l-52.2,37.9
							l-48.4-66.7c-3.9-5.3-11.3-6.5-16.6-2.7c-5.3,3.9-6.5,11.3-2.7,16.6l48.4,66.7l-17.6,12.7c-2.6,1.8-4.3,4.6-4.8,7.7
							c-0.5,3.1,0.3,6.3,2.1,8.9l64.7,89.2c2.9,4,7.8,5.6,12.3,4.6c1.5-0.4,3-1,4.3-2l12.4-9l32.5,44.8c1.5,2.1,3.9,3.6,6.5,4
							c1.3,0.2,2.6,0.1,3.8-0.1c1.3-0.3,2.5-0.9,3.6-1.6l34.3-24.9l23.2-16.8l22.2-16.1c2.1-1.5,3.5-3.9,4-6.5
							C1554.4,264.4,1553.8,261.7,1552.3,259.6z M1407.3,266.9l-50.8-70l101.2-73.4l50.8,70L1407.3,266.9z M1447.7,283l-7.6-10.5
							l63.6-46.1l7.3,10.1L1447.7,283z M1510.9,277.4l-16.9,12.3l-27.1,19.7l-7.4-10.3l63.3-46.5l7.7,10.7L1510.9,277.4z"></path>
						<path d="M1471.7,190.5l-12.1-16.7c-0.8-1.1-1.9-1.8-3.2-2c-1.3-0.2-2.6,0.1-3.7,0.9l-53.9,39.1c-2.2,1.6-2.7,4.7-1.1,6.9
							l12.1,16.7c0.8,1.1,1.9,1.8,3.2,2c0.6,0.1,1.3,0.1,1.9-0.1c0.6-0.1,1.2-0.4,1.8-0.8l53.9-39.1
							C1472.8,195.8,1473.3,192.7,1471.7,190.5z M1414.9,225.5l-6.3-8.7l45.9-33.3l6.3,8.7L1414.9,225.5z"></path>
					</g>
				</g>
			</g>
			<path d="M1244,822.1l8.7-91.6v214.9h-73l9.8-12.6c0,0,27.1-14.9,32.2-45.1C1226.7,857.5,1244,822.1,1244,822.1z" class="st2"></path>
		</g>
		<g>
			<path d="M147.2,1038c96,0,177.4,66,177.4,164.4c0,98.6-81.4,164.2-177.4,164.2c-39.9,0-80,0.2-119.9,0.2V1038H147.2z
				 M147.2,1294.3c54.3,0,98.1-36.7,98.1-92c0-54.8-44.3-92-98.1-92h-40.6v183.9H147.2z"></path>
			<path d="M446,1038l144.9,192.2V1038h79.3v328.9h-65.6l-144.7-192.2v192.2h-79.3V1038H446z"></path>
			<path d="M847,1300.3c16,0,51.7-5.7,51.7-27.1c0-51.1-164.1-27.1-164.1-141.5c0-70.6,69.3-98.8,131-98.8
				c34.3,0,77.2,13.8,108,28.2l-26.7,67c-21.6-8.9-57.7-22.7-81.1-22.7c-17.6,0-51.7,2.5-51.7,26.6c0,53.4,163.9,28.4,163.9,141.5
				c0,69.5-70.2,99.1-131,99.1c-37.3,0-81.6-16.3-115.7-30.5l28.5-67.2C782.6,1284.3,822.5,1300.3,847,1300.3z"></path>
			<path d="M1204,1038l136.3,328.9h-85.6l-25.5-61.7h-121.7l-25.7,61.7h-85.3l136.3-328.9H1204z M1130.3,1244.6h76
				l-37.8-98.8L1130.3,1244.6z" class="st3"></path>
			<path d="M1672,1234c0,78.2-66.5,139.9-144.7,139.9c-78.6,0-144.4-61.2-144.4-139.9V1038h79.8V1234
				c0,36,27.4,67,64.7,67c36.9,0,64.5-31.4,64.5-67V1038h80.2V1234z" class="st3"></path>
			<path d="M1872.7,1259.7h-38.3v107.1h-79.5V1038h129.6c61.9,0,119.2,47.7,119.2,111c0,36.7-19,74.5-52.2,92.7
				l75.8,125.2h-92L1872.7,1259.7z M1832.1,1189.5h52.4c22.3,0,39.4-16.3,39.4-38.5c0-21.6-17.9-38.1-39.4-38.1h-52.4V1189.5z" class="st3"></path>
		</g>
		<g>
			<g>
				<path d="M181,1439.6l26.5,71.9h-16.7l-5-13.5h-23.7l-5,13.5h-16.6l26.5-71.9H181z M166.6,1484.8h14.8l-7.4-21.6L166.6,1484.8z"></path>
				<path d="M237.6,1439.6l28.2,42v-42h15.4v71.9h-12.8l-28.2-42v42h-15.4v-71.9H237.6z"></path>
				<path d="M373.7,1439.6l26.5,71.9h-16.7l-5-13.5h-23.7l-5,13.5h-16.6l26.5-71.9H373.7z M359.3,1484.8h14.8l-7.4-21.6
					L359.3,1484.8z"></path>
				<path d="M430.3,1439.6l28.2,42v-42h15.4v71.9h-12.8l-28.2-42v42h-15.4v-71.9H430.3z"></path>
				<path d="M491.7,1475.5c0-21.3,15.3-37.5,34.3-37.5c11.5,0,21.4,5.3,28.1,15.7l-11.8,10.3c-3.1-6.2-10-10.2-16.3-10.2
					c-10.6,0-18.8,10.1-18.8,21.6c0,23,26.5,30,35.8,10.2l12.3,10C537.1,1526.9,491.7,1513.8,491.7,1475.5z"></path>
				<path d="M571.2,1439.6h15.5v71.9h-15.5V1439.6z"></path>
				<path d="M655.2,1439.6v15.9l-31.5-0.1v10.8H648v15.8h-24.3v13.4h31.5v15.9h-47v-71.9H655.2z"></path>
				<path d="M691.3,1439.6l28.2,42v-42h15.4v71.9h-12.8l-28.2-42v42h-15.4v-71.9H691.3z"></path>
				<path d="M805.9,1439.6v15.9h-18.6v56h-15.5v-56H753v-15.9H805.9z"></path>
				<path d="M914.4,1488.6c0,12.9-9.5,22.9-21,22.9h-26.3v-71.9h25.3c10,0,19,9.9,19,21c0,4.7-2.2,9.1-5.4,12
					C911.2,1476.1,914.4,1481.8,914.4,1488.6z M891.9,1465.7c5.2,0,5.4-10.2-0.1-10.2h-9.6v10.2H891.9z M882.2,1495.6
					c3.7,0,7.3,0,10.9-0.1c7.5-0.1,7.7-14-0.4-14h-10.5V1495.6z"></path>
				<path d="M981.7,1439.6v15.9l-31.5-0.1v10.8h24.3v15.8h-24.3v13.4h31.5v15.9h-47v-71.9H981.7z"></path>
				<path d="M1035.8,1439.6l26.5,71.9h-16.7l-5-13.5h-23.7l-5,13.5h-16.6l26.5-71.9H1035.8z M1021.5,1484.8h14.8l-7.4-21.6
					L1021.5,1484.8z"></path>
				<path d="M1097.7,1497c3.1,0,10.1-1.3,10.1-5.9c0-11.2-32-5.9-32-30.9c0-15.4,13.5-21.6,25.5-21.6c6.7,0,15,3,21,6.2l-5.2,14.6
					c-4.2-2-11.2-5-15.8-5c-3.4,0-10.1,0.6-10.1,5.8c0,11.7,31.9,6.2,31.9,30.9c0,15.2-13.7,21.7-25.5,21.7
					c-7.3,0-15.9-3.6-22.5-6.7l5.6-14.7C1085.1,1493.5,1092.9,1497,1097.7,1497z"></path>
				<path d="M1190.1,1439.6v15.9h-18.6v56h-15.5v-56h-18.7v-15.9H1190.1z"></path>
				<path d="M1280.1,1513.1c-18.8,0-34.4-16.3-34.4-37.4c0-21,15.6-37.6,34.4-37.6c18.8,0,34.4,16.5,34.4,37.6
					C1314.5,1496.8,1298.9,1513.1,1280.1,1513.1z M1299,1475.7c0-11.8-8.1-21.7-18.9-21.7c-10.8,0-19,9.9-19,21.7
					c0,11.7,8.2,21.6,19,21.6S1299,1487.4,1299,1475.7z"></path>
				<path d="M1379.2,1439.6v15.7h-28.9v10.6h21.4v15.8h-21.4v29.7h-15.4v-71.9H1379.2z"></path>
				<path d="M1484.7,1439.6v15.9H1466v56h-15.5v-56h-18.7v-15.9H1484.7z"></path>
				<path d="M1518.3,1439.6v27.5h22.9v-27.5h15.5v71.9h-15.5v-28.5h-22.9v28.5h-15.5v-71.9H1518.3z"></path>
				<path d="M1626.1,1439.6v15.9l-31.5-0.1v10.8h24.3v15.8h-24.3v13.4h31.5v15.9h-47v-71.9H1626.1z"></path>
				<path d="M1736.1,1439.4l12.6,45.1l11.8-44.9h15.9l-20.8,71.9h-12.9l-13-47.5l-13,47.5h-12.9l-20.8-71.9h15.9l11.8,44.9
					l12.6-45.1H1736.1z"></path>
				<path d="M1844.6,1439.6v15.9l-31.5-0.1v10.8h24.3v15.8h-24.3v13.4h31.5v15.9h-47v-71.9H1844.6z"></path>
				<path d="M1914.1,1488.6c0,12.9-9.5,22.9-21,22.9h-26.3v-71.9h25.3c10,0,19,9.9,19,21c0,4.7-2.2,9.1-5.4,12
					C1910.8,1476.1,1914.1,1481.8,1914.1,1488.6z M1891.6,1465.7c5.2,0,5.4-10.2-0.1-10.2h-9.6v10.2H1891.6z M1881.9,1495.6
					c3.7,0,7.3,0,10.9-0.1c7.5-0.1,7.7-14-0.4-14h-10.5V1495.6z"></path>
			</g>
			<g>
				<rect height="17.6" width="69.4" y="1463.2" x="33.8"></rect>
				<rect height="17.6" width="69.4" y="1463.2" x="1951.4"></rect>
			</g>
		</g>
	</g>
</g>
</svg>
